<mxfile host="app.diagrams.net" modified="2022-01-06T20:21:01.780Z" agent="5.0 (Macintosh; Intel Mac OS X 10_15_7) AppleWebKit/605.1.15 (KHTML, like Gecko) Version/15.2 Safari/605.1.15" etag="wbnOX8N9VDqy-7tNinC4" version="16.1.4" type="github" pages="7">
  <diagram id="A3hhvqO9dA2RtZS7eoTK" name="Page-1">
    <mxGraphModel dx="946" dy="620" grid="0" gridSize="10" guides="1" tooltips="1" connect="1" arrows="1" fold="1" page="1" pageScale="1" pageWidth="1169" pageHeight="827" math="0" shadow="0">
      <root>
        <mxCell id="0" />
        <mxCell id="1" parent="0" />
        <mxCell id="AF2ekvvkQX895O6I91k7-1" value="1" style="rounded=1;whiteSpace=wrap;html=1;" parent="1" vertex="1">
          <mxGeometry x="105" y="92" width="42" height="30" as="geometry" />
        </mxCell>
        <mxCell id="AF2ekvvkQX895O6I91k7-3" value="3" style="rounded=1;whiteSpace=wrap;html=1;" parent="1" vertex="1">
          <mxGeometry x="154" y="92" width="42" height="30" as="geometry" />
        </mxCell>
        <mxCell id="AF2ekvvkQX895O6I91k7-4" value="4" style="rounded=1;whiteSpace=wrap;html=1;" parent="1" vertex="1">
          <mxGeometry x="203" y="92" width="42" height="30" as="geometry" />
        </mxCell>
        <mxCell id="AF2ekvvkQX895O6I91k7-5" value="6" style="rounded=1;whiteSpace=wrap;html=1;" parent="1" vertex="1">
          <mxGeometry x="252" y="92" width="42" height="30" as="geometry" />
        </mxCell>
        <mxCell id="AF2ekvvkQX895O6I91k7-6" value="7" style="rounded=1;whiteSpace=wrap;html=1;" parent="1" vertex="1">
          <mxGeometry x="301" y="92" width="42" height="30" as="geometry" />
        </mxCell>
        <mxCell id="AF2ekvvkQX895O6I91k7-7" value="9" style="rounded=1;whiteSpace=wrap;html=1;" parent="1" vertex="1">
          <mxGeometry x="350" y="92" width="42" height="30" as="geometry" />
        </mxCell>
        <mxCell id="AF2ekvvkQX895O6I91k7-8" value="11" style="rounded=1;whiteSpace=wrap;html=1;" parent="1" vertex="1">
          <mxGeometry x="399" y="92" width="42" height="30" as="geometry" />
        </mxCell>
        <mxCell id="AF2ekvvkQX895O6I91k7-9" value="15" style="rounded=1;whiteSpace=wrap;html=1;" parent="1" vertex="1">
          <mxGeometry x="448" y="92" width="42" height="30" as="geometry" />
        </mxCell>
        <mxCell id="AF2ekvvkQX895O6I91k7-10" value="17" style="rounded=1;whiteSpace=wrap;html=1;" parent="1" vertex="1">
          <mxGeometry x="497" y="92" width="42" height="30" as="geometry" />
        </mxCell>
        <mxCell id="AF2ekvvkQX895O6I91k7-11" value="18" style="rounded=1;whiteSpace=wrap;html=1;" parent="1" vertex="1">
          <mxGeometry x="546" y="92" width="42" height="30" as="geometry" />
        </mxCell>
        <mxCell id="AF2ekvvkQX895O6I91k7-12" value="21" style="rounded=1;whiteSpace=wrap;html=1;" parent="1" vertex="1">
          <mxGeometry x="595" y="92" width="42" height="30" as="geometry" />
        </mxCell>
        <mxCell id="AF2ekvvkQX895O6I91k7-13" value="25" style="rounded=1;whiteSpace=wrap;html=1;" parent="1" vertex="1">
          <mxGeometry x="644" y="92" width="42" height="30" as="geometry" />
        </mxCell>
        <mxCell id="AF2ekvvkQX895O6I91k7-14" value="26" style="rounded=1;whiteSpace=wrap;html=1;" parent="1" vertex="1">
          <mxGeometry x="693" y="92" width="42" height="30" as="geometry" />
        </mxCell>
        <mxCell id="AF2ekvvkQX895O6I91k7-15" value="29" style="rounded=1;whiteSpace=wrap;html=1;" parent="1" vertex="1">
          <mxGeometry x="742" y="92" width="42" height="30" as="geometry" />
        </mxCell>
        <mxCell id="AF2ekvvkQX895O6I91k7-16" value="30" style="rounded=1;whiteSpace=wrap;html=1;" parent="1" vertex="1">
          <mxGeometry x="791" y="92" width="42" height="30" as="geometry" />
        </mxCell>
        <mxCell id="AF2ekvvkQX895O6I91k7-18" value="1" style="rounded=1;whiteSpace=wrap;html=1;" parent="1" vertex="1">
          <mxGeometry x="110" y="493" width="42" height="30" as="geometry" />
        </mxCell>
        <mxCell id="AF2ekvvkQX895O6I91k7-19" value="3" style="rounded=1;whiteSpace=wrap;html=1;" parent="1" vertex="1">
          <mxGeometry x="159" y="493" width="42" height="30" as="geometry" />
        </mxCell>
        <mxCell id="AF2ekvvkQX895O6I91k7-20" value="4" style="rounded=1;whiteSpace=wrap;html=1;" parent="1" vertex="1">
          <mxGeometry x="208" y="493" width="42" height="30" as="geometry" />
        </mxCell>
        <mxCell id="AF2ekvvkQX895O6I91k7-21" value="6" style="rounded=1;whiteSpace=wrap;html=1;fillColor=#dae8fc;strokeColor=#6c8ebf;" parent="1" vertex="1">
          <mxGeometry x="257" y="493" width="42" height="30" as="geometry" />
        </mxCell>
        <mxCell id="AF2ekvvkQX895O6I91k7-22" value="7" style="rounded=1;whiteSpace=wrap;html=1;" parent="1" vertex="1">
          <mxGeometry x="306" y="493" width="42" height="30" as="geometry" />
        </mxCell>
        <mxCell id="AF2ekvvkQX895O6I91k7-23" value="9" style="rounded=1;whiteSpace=wrap;html=1;" parent="1" vertex="1">
          <mxGeometry x="355" y="493" width="42" height="30" as="geometry" />
        </mxCell>
        <mxCell id="AF2ekvvkQX895O6I91k7-24" value="11" style="rounded=1;whiteSpace=wrap;html=1;" parent="1" vertex="1">
          <mxGeometry x="404" y="493" width="42" height="30" as="geometry" />
        </mxCell>
        <mxCell id="AF2ekvvkQX895O6I91k7-50" style="edgeStyle=orthogonalEdgeStyle;rounded=0;orthogonalLoop=1;jettySize=auto;html=1;exitX=0.5;exitY=1;exitDx=0;exitDy=0;entryX=0.5;entryY=0;entryDx=0;entryDy=0;" parent="1" source="AF2ekvvkQX895O6I91k7-25" target="AF2ekvvkQX895O6I91k7-21" edge="1">
          <mxGeometry relative="1" as="geometry" />
        </mxCell>
        <mxCell id="AF2ekvvkQX895O6I91k7-51" style="edgeStyle=orthogonalEdgeStyle;rounded=0;orthogonalLoop=1;jettySize=auto;html=1;exitX=0.5;exitY=1;exitDx=0;exitDy=0;entryX=0.5;entryY=0;entryDx=0;entryDy=0;" parent="1" source="AF2ekvvkQX895O6I91k7-25" target="AF2ekvvkQX895O6I91k7-29" edge="1">
          <mxGeometry relative="1" as="geometry" />
        </mxCell>
        <mxCell id="AF2ekvvkQX895O6I91k7-25" value="15" style="rounded=1;whiteSpace=wrap;html=1;fillColor=#dae8fc;strokeColor=#6c8ebf;" parent="1" vertex="1">
          <mxGeometry x="446" y="414" width="42" height="30" as="geometry" />
        </mxCell>
        <mxCell id="AF2ekvvkQX895O6I91k7-26" value="17" style="rounded=1;whiteSpace=wrap;html=1;" parent="1" vertex="1">
          <mxGeometry x="493" y="493" width="42" height="30" as="geometry" />
        </mxCell>
        <mxCell id="AF2ekvvkQX895O6I91k7-27" value="18" style="rounded=1;whiteSpace=wrap;html=1;" parent="1" vertex="1">
          <mxGeometry x="542" y="493" width="42" height="30" as="geometry" />
        </mxCell>
        <mxCell id="AF2ekvvkQX895O6I91k7-28" value="21" style="rounded=1;whiteSpace=wrap;html=1;" parent="1" vertex="1">
          <mxGeometry x="591" y="493" width="42" height="30" as="geometry" />
        </mxCell>
        <mxCell id="AF2ekvvkQX895O6I91k7-29" value="25" style="rounded=1;whiteSpace=wrap;html=1;fillColor=#dae8fc;strokeColor=#6c8ebf;" parent="1" vertex="1">
          <mxGeometry x="640" y="493" width="42" height="30" as="geometry" />
        </mxCell>
        <mxCell id="AF2ekvvkQX895O6I91k7-30" value="26" style="rounded=1;whiteSpace=wrap;html=1;" parent="1" vertex="1">
          <mxGeometry x="689" y="493" width="42" height="30" as="geometry" />
        </mxCell>
        <mxCell id="AF2ekvvkQX895O6I91k7-31" value="29" style="rounded=1;whiteSpace=wrap;html=1;" parent="1" vertex="1">
          <mxGeometry x="738" y="493" width="42" height="30" as="geometry" />
        </mxCell>
        <mxCell id="AF2ekvvkQX895O6I91k7-32" value="30" style="rounded=1;whiteSpace=wrap;html=1;" parent="1" vertex="1">
          <mxGeometry x="787" y="493" width="42" height="30" as="geometry" />
        </mxCell>
        <mxCell id="AF2ekvvkQX895O6I91k7-33" value="1" style="rounded=1;whiteSpace=wrap;html=1;" parent="1" vertex="1">
          <mxGeometry x="105" y="251" width="42" height="30" as="geometry" />
        </mxCell>
        <mxCell id="AF2ekvvkQX895O6I91k7-34" value="3" style="rounded=1;whiteSpace=wrap;html=1;" parent="1" vertex="1">
          <mxGeometry x="154" y="251" width="42" height="30" as="geometry" />
        </mxCell>
        <mxCell id="AF2ekvvkQX895O6I91k7-35" value="4" style="rounded=1;whiteSpace=wrap;html=1;" parent="1" vertex="1">
          <mxGeometry x="203" y="251" width="42" height="30" as="geometry" />
        </mxCell>
        <mxCell id="AF2ekvvkQX895O6I91k7-36" value="6" style="rounded=1;whiteSpace=wrap;html=1;fillColor=#dae8fc;strokeColor=#6c8ebf;" parent="1" vertex="1">
          <mxGeometry x="252" y="251" width="42" height="30" as="geometry" />
        </mxCell>
        <mxCell id="AF2ekvvkQX895O6I91k7-37" value="7" style="rounded=1;whiteSpace=wrap;html=1;" parent="1" vertex="1">
          <mxGeometry x="301" y="251" width="42" height="30" as="geometry" />
        </mxCell>
        <mxCell id="AF2ekvvkQX895O6I91k7-38" value="9" style="rounded=1;whiteSpace=wrap;html=1;" parent="1" vertex="1">
          <mxGeometry x="350" y="251" width="42" height="30" as="geometry" />
        </mxCell>
        <mxCell id="AF2ekvvkQX895O6I91k7-39" value="11" style="rounded=1;whiteSpace=wrap;html=1;" parent="1" vertex="1">
          <mxGeometry x="399" y="251" width="42" height="30" as="geometry" />
        </mxCell>
        <mxCell id="AF2ekvvkQX895O6I91k7-40" value="7" style="rounded=1;whiteSpace=wrap;html=1;" parent="1" vertex="1">
          <mxGeometry x="301" y="329" width="42" height="30" as="geometry" />
        </mxCell>
        <mxCell id="AF2ekvvkQX895O6I91k7-41" value="9" style="rounded=1;whiteSpace=wrap;html=1;fillColor=#d5e8d4;strokeColor=#82b366;" parent="1" vertex="1">
          <mxGeometry x="350" y="329" width="42" height="30" as="geometry" />
        </mxCell>
        <mxCell id="AF2ekvvkQX895O6I91k7-42" value="11" style="rounded=1;whiteSpace=wrap;html=1;" parent="1" vertex="1">
          <mxGeometry x="399" y="329" width="42" height="30" as="geometry" />
        </mxCell>
        <mxCell id="AF2ekvvkQX895O6I91k7-43" value="17" style="rounded=1;whiteSpace=wrap;html=1;" parent="1" vertex="1">
          <mxGeometry x="497" y="251" width="42" height="30" as="geometry" />
        </mxCell>
        <mxCell id="AF2ekvvkQX895O6I91k7-44" value="18" style="rounded=1;whiteSpace=wrap;html=1;" parent="1" vertex="1">
          <mxGeometry x="546" y="251" width="42" height="30" as="geometry" />
        </mxCell>
        <mxCell id="AF2ekvvkQX895O6I91k7-45" value="21" style="rounded=1;whiteSpace=wrap;html=1;" parent="1" vertex="1">
          <mxGeometry x="595" y="251" width="42" height="30" as="geometry" />
        </mxCell>
        <mxCell id="AF2ekvvkQX895O6I91k7-46" value="25" style="rounded=1;whiteSpace=wrap;html=1;fillColor=#d5e8d4;strokeColor=#82b366;" parent="1" vertex="1">
          <mxGeometry x="644" y="251" width="42" height="30" as="geometry" />
        </mxCell>
        <mxCell id="AF2ekvvkQX895O6I91k7-47" value="26" style="rounded=1;whiteSpace=wrap;html=1;" parent="1" vertex="1">
          <mxGeometry x="693" y="251" width="42" height="30" as="geometry" />
        </mxCell>
        <mxCell id="AF2ekvvkQX895O6I91k7-48" value="29" style="rounded=1;whiteSpace=wrap;html=1;" parent="1" vertex="1">
          <mxGeometry x="742" y="251" width="42" height="30" as="geometry" />
        </mxCell>
        <mxCell id="AF2ekvvkQX895O6I91k7-49" value="30" style="rounded=1;whiteSpace=wrap;html=1;" parent="1" vertex="1">
          <mxGeometry x="791" y="251" width="42" height="30" as="geometry" />
        </mxCell>
        <mxCell id="AF2ekvvkQX895O6I91k7-69" value="1" style="rounded=1;whiteSpace=wrap;html=1;" parent="1" vertex="1">
          <mxGeometry x="110" y="721" width="42" height="30" as="geometry" />
        </mxCell>
        <mxCell id="AF2ekvvkQX895O6I91k7-70" value="3" style="rounded=1;whiteSpace=wrap;html=1;fillColor=#dae8fc;strokeColor=#6c8ebf;" parent="1" vertex="1">
          <mxGeometry x="159" y="721" width="42" height="30" as="geometry" />
        </mxCell>
        <mxCell id="AF2ekvvkQX895O6I91k7-71" value="4" style="rounded=1;whiteSpace=wrap;html=1;" parent="1" vertex="1">
          <mxGeometry x="208" y="721" width="42" height="30" as="geometry" />
        </mxCell>
        <mxCell id="AF2ekvvkQX895O6I91k7-86" style="edgeStyle=orthogonalEdgeStyle;rounded=0;orthogonalLoop=1;jettySize=auto;html=1;exitX=0.5;exitY=1;exitDx=0;exitDy=0;entryX=0.5;entryY=0;entryDx=0;entryDy=0;" parent="1" source="AF2ekvvkQX895O6I91k7-72" target="AF2ekvvkQX895O6I91k7-70" edge="1">
          <mxGeometry relative="1" as="geometry" />
        </mxCell>
        <mxCell id="AF2ekvvkQX895O6I91k7-87" style="edgeStyle=orthogonalEdgeStyle;rounded=0;orthogonalLoop=1;jettySize=auto;html=1;exitX=0.5;exitY=1;exitDx=0;exitDy=0;" parent="1" source="AF2ekvvkQX895O6I91k7-72" target="AF2ekvvkQX895O6I91k7-74" edge="1">
          <mxGeometry relative="1" as="geometry" />
        </mxCell>
        <mxCell id="AF2ekvvkQX895O6I91k7-72" value="6" style="rounded=1;whiteSpace=wrap;html=1;fillColor=#dae8fc;strokeColor=#6c8ebf;" parent="1" vertex="1">
          <mxGeometry x="256.5" y="649" width="42" height="30" as="geometry" />
        </mxCell>
        <mxCell id="AF2ekvvkQX895O6I91k7-73" value="7" style="rounded=1;whiteSpace=wrap;html=1;" parent="1" vertex="1">
          <mxGeometry x="305.5" y="721" width="42" height="30" as="geometry" />
        </mxCell>
        <mxCell id="AF2ekvvkQX895O6I91k7-74" value="9" style="rounded=1;whiteSpace=wrap;html=1;fillColor=#dae8fc;strokeColor=#6c8ebf;" parent="1" vertex="1">
          <mxGeometry x="354.5" y="721" width="42" height="30" as="geometry" />
        </mxCell>
        <mxCell id="AF2ekvvkQX895O6I91k7-75" value="11" style="rounded=1;whiteSpace=wrap;html=1;" parent="1" vertex="1">
          <mxGeometry x="403.5" y="721" width="42" height="30" as="geometry" />
        </mxCell>
        <mxCell id="AF2ekvvkQX895O6I91k7-76" style="edgeStyle=orthogonalEdgeStyle;rounded=0;orthogonalLoop=1;jettySize=auto;html=1;exitX=0.5;exitY=1;exitDx=0;exitDy=0;entryX=0.5;entryY=0;entryDx=0;entryDy=0;" parent="1" source="AF2ekvvkQX895O6I91k7-78" target="AF2ekvvkQX895O6I91k7-72" edge="1">
          <mxGeometry relative="1" as="geometry" />
        </mxCell>
        <mxCell id="AF2ekvvkQX895O6I91k7-77" style="edgeStyle=orthogonalEdgeStyle;rounded=0;orthogonalLoop=1;jettySize=auto;html=1;exitX=0.5;exitY=1;exitDx=0;exitDy=0;entryX=0.5;entryY=0;entryDx=0;entryDy=0;" parent="1" source="AF2ekvvkQX895O6I91k7-78" target="AF2ekvvkQX895O6I91k7-82" edge="1">
          <mxGeometry relative="1" as="geometry" />
        </mxCell>
        <mxCell id="AF2ekvvkQX895O6I91k7-78" value="15" style="rounded=1;whiteSpace=wrap;html=1;fillColor=#dae8fc;strokeColor=#6c8ebf;" parent="1" vertex="1">
          <mxGeometry x="445.5" y="570" width="42" height="30" as="geometry" />
        </mxCell>
        <mxCell id="AF2ekvvkQX895O6I91k7-79" value="17" style="rounded=1;whiteSpace=wrap;html=1;" parent="1" vertex="1">
          <mxGeometry x="493" y="721" width="42" height="30" as="geometry" />
        </mxCell>
        <mxCell id="AF2ekvvkQX895O6I91k7-80" value="18" style="rounded=1;whiteSpace=wrap;html=1;fillColor=#dae8fc;strokeColor=#6c8ebf;" parent="1" vertex="1">
          <mxGeometry x="542" y="721" width="42" height="30" as="geometry" />
        </mxCell>
        <mxCell id="AF2ekvvkQX895O6I91k7-81" value="21" style="rounded=1;whiteSpace=wrap;html=1;" parent="1" vertex="1">
          <mxGeometry x="591" y="721" width="42" height="30" as="geometry" />
        </mxCell>
        <mxCell id="AF2ekvvkQX895O6I91k7-88" style="edgeStyle=orthogonalEdgeStyle;rounded=0;orthogonalLoop=1;jettySize=auto;html=1;exitX=0.5;exitY=1;exitDx=0;exitDy=0;" parent="1" source="AF2ekvvkQX895O6I91k7-82" target="AF2ekvvkQX895O6I91k7-80" edge="1">
          <mxGeometry relative="1" as="geometry" />
        </mxCell>
        <mxCell id="AF2ekvvkQX895O6I91k7-89" style="edgeStyle=orthogonalEdgeStyle;rounded=0;orthogonalLoop=1;jettySize=auto;html=1;exitX=0.5;exitY=1;exitDx=0;exitDy=0;" parent="1" source="AF2ekvvkQX895O6I91k7-82" target="AF2ekvvkQX895O6I91k7-84" edge="1">
          <mxGeometry relative="1" as="geometry" />
        </mxCell>
        <mxCell id="AF2ekvvkQX895O6I91k7-82" value="25" style="rounded=1;whiteSpace=wrap;html=1;fillColor=#dae8fc;strokeColor=#6c8ebf;" parent="1" vertex="1">
          <mxGeometry x="639.5" y="649" width="42" height="30" as="geometry" />
        </mxCell>
        <mxCell id="AF2ekvvkQX895O6I91k7-83" value="26" style="rounded=1;whiteSpace=wrap;html=1;" parent="1" vertex="1">
          <mxGeometry x="689" y="721" width="42" height="30" as="geometry" />
        </mxCell>
        <mxCell id="AF2ekvvkQX895O6I91k7-84" value="29" style="rounded=1;whiteSpace=wrap;html=1;fillColor=#dae8fc;strokeColor=#6c8ebf;" parent="1" vertex="1">
          <mxGeometry x="738" y="721" width="42" height="30" as="geometry" />
        </mxCell>
        <mxCell id="AF2ekvvkQX895O6I91k7-85" value="30" style="rounded=1;whiteSpace=wrap;html=1;" parent="1" vertex="1">
          <mxGeometry x="787" y="721" width="42" height="30" as="geometry" />
        </mxCell>
      </root>
    </mxGraphModel>
  </diagram>
  <diagram id="fiyJoMXTHpPhbALdrPam" name="Page-2">
    <mxGraphModel dx="946" dy="620" grid="0" gridSize="10" guides="1" tooltips="1" connect="1" arrows="1" fold="1" page="1" pageScale="1" pageWidth="1169" pageHeight="827" math="0" shadow="0">
      <root>
        <mxCell id="BXUHvQjTFfEA0dDs-Krc-0" />
        <mxCell id="BXUHvQjTFfEA0dDs-Krc-1" parent="BXUHvQjTFfEA0dDs-Krc-0" />
        <mxCell id="BXUHvQjTFfEA0dDs-Krc-2" value="1" style="rounded=1;whiteSpace=wrap;html=1;" parent="BXUHvQjTFfEA0dDs-Krc-1" vertex="1">
          <mxGeometry x="103" y="306" width="42" height="30" as="geometry" />
        </mxCell>
        <mxCell id="BXUHvQjTFfEA0dDs-Krc-23" style="edgeStyle=orthogonalEdgeStyle;rounded=0;orthogonalLoop=1;jettySize=auto;html=1;exitX=0.5;exitY=1;exitDx=0;exitDy=0;" parent="BXUHvQjTFfEA0dDs-Krc-1" source="BXUHvQjTFfEA0dDs-Krc-3" target="BXUHvQjTFfEA0dDs-Krc-2" edge="1">
          <mxGeometry relative="1" as="geometry" />
        </mxCell>
        <mxCell id="BXUHvQjTFfEA0dDs-Krc-24" style="edgeStyle=orthogonalEdgeStyle;rounded=0;orthogonalLoop=1;jettySize=auto;html=1;exitX=0.5;exitY=1;exitDx=0;exitDy=0;" parent="BXUHvQjTFfEA0dDs-Krc-1" source="BXUHvQjTFfEA0dDs-Krc-3" target="BXUHvQjTFfEA0dDs-Krc-4" edge="1">
          <mxGeometry relative="1" as="geometry" />
        </mxCell>
        <mxCell id="BXUHvQjTFfEA0dDs-Krc-3" value="3" style="rounded=1;whiteSpace=wrap;html=1;" parent="BXUHvQjTFfEA0dDs-Krc-1" vertex="1">
          <mxGeometry x="152" y="236" width="42" height="30" as="geometry" />
        </mxCell>
        <mxCell id="BXUHvQjTFfEA0dDs-Krc-4" value="4" style="rounded=1;whiteSpace=wrap;html=1;" parent="BXUHvQjTFfEA0dDs-Krc-1" vertex="1">
          <mxGeometry x="201" y="306" width="42" height="30" as="geometry" />
        </mxCell>
        <mxCell id="BXUHvQjTFfEA0dDs-Krc-5" style="edgeStyle=orthogonalEdgeStyle;rounded=0;orthogonalLoop=1;jettySize=auto;html=1;exitX=0.5;exitY=1;exitDx=0;exitDy=0;entryX=0.5;entryY=0;entryDx=0;entryDy=0;" parent="BXUHvQjTFfEA0dDs-Krc-1" source="BXUHvQjTFfEA0dDs-Krc-7" target="BXUHvQjTFfEA0dDs-Krc-3" edge="1">
          <mxGeometry relative="1" as="geometry" />
        </mxCell>
        <mxCell id="BXUHvQjTFfEA0dDs-Krc-6" style="edgeStyle=orthogonalEdgeStyle;rounded=0;orthogonalLoop=1;jettySize=auto;html=1;exitX=0.5;exitY=1;exitDx=0;exitDy=0;fillColor=#f8cecc;strokeColor=#b85450;" parent="BXUHvQjTFfEA0dDs-Krc-1" source="BXUHvQjTFfEA0dDs-Krc-7" target="BXUHvQjTFfEA0dDs-Krc-9" edge="1">
          <mxGeometry relative="1" as="geometry" />
        </mxCell>
        <mxCell id="BXUHvQjTFfEA0dDs-Krc-7" value="6" style="rounded=1;whiteSpace=wrap;html=1;" parent="BXUHvQjTFfEA0dDs-Krc-1" vertex="1">
          <mxGeometry x="249.5" y="164" width="42" height="30" as="geometry" />
        </mxCell>
        <mxCell id="BXUHvQjTFfEA0dDs-Krc-8" value="7" style="rounded=1;whiteSpace=wrap;html=1;" parent="BXUHvQjTFfEA0dDs-Krc-1" vertex="1">
          <mxGeometry x="298.5" y="306" width="42" height="30" as="geometry" />
        </mxCell>
        <mxCell id="BXUHvQjTFfEA0dDs-Krc-25" style="edgeStyle=orthogonalEdgeStyle;rounded=0;orthogonalLoop=1;jettySize=auto;html=1;exitX=0.5;exitY=1;exitDx=0;exitDy=0;entryX=0.5;entryY=0;entryDx=0;entryDy=0;" parent="BXUHvQjTFfEA0dDs-Krc-1" source="BXUHvQjTFfEA0dDs-Krc-9" target="BXUHvQjTFfEA0dDs-Krc-8" edge="1">
          <mxGeometry relative="1" as="geometry" />
        </mxCell>
        <mxCell id="BXUHvQjTFfEA0dDs-Krc-26" style="edgeStyle=orthogonalEdgeStyle;rounded=0;orthogonalLoop=1;jettySize=auto;html=1;exitX=0.5;exitY=1;exitDx=0;exitDy=0;entryX=0.5;entryY=0;entryDx=0;entryDy=0;" parent="BXUHvQjTFfEA0dDs-Krc-1" source="BXUHvQjTFfEA0dDs-Krc-9" target="BXUHvQjTFfEA0dDs-Krc-10" edge="1">
          <mxGeometry relative="1" as="geometry" />
        </mxCell>
        <mxCell id="BXUHvQjTFfEA0dDs-Krc-9" value="9" style="rounded=1;whiteSpace=wrap;html=1;" parent="BXUHvQjTFfEA0dDs-Krc-1" vertex="1">
          <mxGeometry x="347.5" y="236" width="42" height="30" as="geometry" />
        </mxCell>
        <mxCell id="BXUHvQjTFfEA0dDs-Krc-10" value="11" style="rounded=1;whiteSpace=wrap;html=1;" parent="BXUHvQjTFfEA0dDs-Krc-1" vertex="1">
          <mxGeometry x="396.5" y="306" width="42" height="30" as="geometry" />
        </mxCell>
        <mxCell id="BXUHvQjTFfEA0dDs-Krc-11" style="edgeStyle=orthogonalEdgeStyle;rounded=0;orthogonalLoop=1;jettySize=auto;html=1;exitX=0.5;exitY=1;exitDx=0;exitDy=0;entryX=0.5;entryY=0;entryDx=0;entryDy=0;fillColor=#f8cecc;strokeColor=#b85450;" parent="BXUHvQjTFfEA0dDs-Krc-1" source="BXUHvQjTFfEA0dDs-Krc-13" target="BXUHvQjTFfEA0dDs-Krc-7" edge="1">
          <mxGeometry relative="1" as="geometry" />
        </mxCell>
        <mxCell id="BXUHvQjTFfEA0dDs-Krc-12" style="edgeStyle=orthogonalEdgeStyle;rounded=0;orthogonalLoop=1;jettySize=auto;html=1;exitX=0.5;exitY=1;exitDx=0;exitDy=0;entryX=0.5;entryY=0;entryDx=0;entryDy=0;" parent="BXUHvQjTFfEA0dDs-Krc-1" source="BXUHvQjTFfEA0dDs-Krc-13" target="BXUHvQjTFfEA0dDs-Krc-19" edge="1">
          <mxGeometry relative="1" as="geometry" />
        </mxCell>
        <mxCell id="BXUHvQjTFfEA0dDs-Krc-13" value="15" style="rounded=1;whiteSpace=wrap;html=1;" parent="BXUHvQjTFfEA0dDs-Krc-1" vertex="1">
          <mxGeometry x="438.5" y="85" width="42" height="30" as="geometry" />
        </mxCell>
        <mxCell id="BXUHvQjTFfEA0dDs-Krc-14" value="17" style="rounded=1;whiteSpace=wrap;html=1;" parent="BXUHvQjTFfEA0dDs-Krc-1" vertex="1">
          <mxGeometry x="486" y="306" width="42" height="30" as="geometry" />
        </mxCell>
        <mxCell id="BXUHvQjTFfEA0dDs-Krc-27" style="edgeStyle=orthogonalEdgeStyle;rounded=0;orthogonalLoop=1;jettySize=auto;html=1;exitX=0.5;exitY=1;exitDx=0;exitDy=0;entryX=0.5;entryY=0;entryDx=0;entryDy=0;" parent="BXUHvQjTFfEA0dDs-Krc-1" source="BXUHvQjTFfEA0dDs-Krc-15" target="BXUHvQjTFfEA0dDs-Krc-14" edge="1">
          <mxGeometry relative="1" as="geometry" />
        </mxCell>
        <mxCell id="BXUHvQjTFfEA0dDs-Krc-28" style="edgeStyle=orthogonalEdgeStyle;rounded=0;orthogonalLoop=1;jettySize=auto;html=1;exitX=0.5;exitY=1;exitDx=0;exitDy=0;entryX=0.5;entryY=0;entryDx=0;entryDy=0;" parent="BXUHvQjTFfEA0dDs-Krc-1" source="BXUHvQjTFfEA0dDs-Krc-15" target="BXUHvQjTFfEA0dDs-Krc-16" edge="1">
          <mxGeometry relative="1" as="geometry" />
        </mxCell>
        <mxCell id="BXUHvQjTFfEA0dDs-Krc-15" value="18" style="rounded=1;whiteSpace=wrap;html=1;" parent="BXUHvQjTFfEA0dDs-Krc-1" vertex="1">
          <mxGeometry x="535" y="236" width="42" height="30" as="geometry" />
        </mxCell>
        <mxCell id="BXUHvQjTFfEA0dDs-Krc-16" value="21" style="rounded=1;whiteSpace=wrap;html=1;" parent="BXUHvQjTFfEA0dDs-Krc-1" vertex="1">
          <mxGeometry x="584" y="306" width="42" height="30" as="geometry" />
        </mxCell>
        <mxCell id="BXUHvQjTFfEA0dDs-Krc-17" style="edgeStyle=orthogonalEdgeStyle;rounded=0;orthogonalLoop=1;jettySize=auto;html=1;exitX=0.5;exitY=1;exitDx=0;exitDy=0;" parent="BXUHvQjTFfEA0dDs-Krc-1" source="BXUHvQjTFfEA0dDs-Krc-19" target="BXUHvQjTFfEA0dDs-Krc-15" edge="1">
          <mxGeometry relative="1" as="geometry" />
        </mxCell>
        <mxCell id="BXUHvQjTFfEA0dDs-Krc-18" style="edgeStyle=orthogonalEdgeStyle;rounded=0;orthogonalLoop=1;jettySize=auto;html=1;exitX=0.5;exitY=1;exitDx=0;exitDy=0;" parent="BXUHvQjTFfEA0dDs-Krc-1" source="BXUHvQjTFfEA0dDs-Krc-19" target="BXUHvQjTFfEA0dDs-Krc-21" edge="1">
          <mxGeometry relative="1" as="geometry" />
        </mxCell>
        <mxCell id="BXUHvQjTFfEA0dDs-Krc-19" value="25" style="rounded=1;whiteSpace=wrap;html=1;" parent="BXUHvQjTFfEA0dDs-Krc-1" vertex="1">
          <mxGeometry x="632.5" y="164" width="42" height="30" as="geometry" />
        </mxCell>
        <mxCell id="BXUHvQjTFfEA0dDs-Krc-20" value="26" style="rounded=1;whiteSpace=wrap;html=1;" parent="BXUHvQjTFfEA0dDs-Krc-1" vertex="1">
          <mxGeometry x="682" y="306" width="42" height="30" as="geometry" />
        </mxCell>
        <mxCell id="BXUHvQjTFfEA0dDs-Krc-29" style="edgeStyle=orthogonalEdgeStyle;rounded=0;orthogonalLoop=1;jettySize=auto;html=1;exitX=0.5;exitY=1;exitDx=0;exitDy=0;entryX=0.5;entryY=0;entryDx=0;entryDy=0;" parent="BXUHvQjTFfEA0dDs-Krc-1" source="BXUHvQjTFfEA0dDs-Krc-21" target="BXUHvQjTFfEA0dDs-Krc-20" edge="1">
          <mxGeometry relative="1" as="geometry" />
        </mxCell>
        <mxCell id="BXUHvQjTFfEA0dDs-Krc-30" style="edgeStyle=orthogonalEdgeStyle;rounded=0;orthogonalLoop=1;jettySize=auto;html=1;exitX=0.5;exitY=1;exitDx=0;exitDy=0;entryX=0.5;entryY=0;entryDx=0;entryDy=0;" parent="BXUHvQjTFfEA0dDs-Krc-1" source="BXUHvQjTFfEA0dDs-Krc-21" target="BXUHvQjTFfEA0dDs-Krc-22" edge="1">
          <mxGeometry relative="1" as="geometry" />
        </mxCell>
        <mxCell id="BXUHvQjTFfEA0dDs-Krc-21" value="29" style="rounded=1;whiteSpace=wrap;html=1;" parent="BXUHvQjTFfEA0dDs-Krc-1" vertex="1">
          <mxGeometry x="731" y="236" width="42" height="30" as="geometry" />
        </mxCell>
        <mxCell id="BXUHvQjTFfEA0dDs-Krc-22" value="30" style="rounded=1;whiteSpace=wrap;html=1;" parent="BXUHvQjTFfEA0dDs-Krc-1" vertex="1">
          <mxGeometry x="780" y="306" width="42" height="30" as="geometry" />
        </mxCell>
        <mxCell id="BXUHvQjTFfEA0dDs-Krc-31" value="Pfad zu Knoten 9" style="text;html=1;strokeColor=none;fillColor=none;align=center;verticalAlign=middle;whiteSpace=wrap;rounded=0;fontSize=17;fontColor=#000000;" parent="BXUHvQjTFfEA0dDs-Krc-1" vertex="1">
          <mxGeometry x="306" y="164" width="164" height="28" as="geometry" />
        </mxCell>
        <mxCell id="PrdO-KSjAN5AKFsQhhlJ-0" value="" style="rounded=1;whiteSpace=wrap;html=1;" parent="BXUHvQjTFfEA0dDs-Krc-1" vertex="1">
          <mxGeometry x="118" y="653" width="42" height="30" as="geometry" />
        </mxCell>
        <mxCell id="PrdO-KSjAN5AKFsQhhlJ-36" style="edgeStyle=none;rounded=0;orthogonalLoop=1;jettySize=auto;html=1;exitX=0.5;exitY=1;exitDx=0;exitDy=0;entryX=0.5;entryY=0;entryDx=0;entryDy=0;" parent="BXUHvQjTFfEA0dDs-Krc-1" source="PrdO-KSjAN5AKFsQhhlJ-3" target="PrdO-KSjAN5AKFsQhhlJ-0" edge="1">
          <mxGeometry relative="1" as="geometry" />
        </mxCell>
        <mxCell id="PrdO-KSjAN5AKFsQhhlJ-37" style="edgeStyle=none;rounded=0;orthogonalLoop=1;jettySize=auto;html=1;exitX=0.5;exitY=1;exitDx=0;exitDy=0;entryX=0.5;entryY=0;entryDx=0;entryDy=0;" parent="BXUHvQjTFfEA0dDs-Krc-1" source="PrdO-KSjAN5AKFsQhhlJ-3" target="PrdO-KSjAN5AKFsQhhlJ-4" edge="1">
          <mxGeometry relative="1" as="geometry" />
        </mxCell>
        <mxCell id="PrdO-KSjAN5AKFsQhhlJ-3" value="" style="rounded=1;whiteSpace=wrap;html=1;" parent="BXUHvQjTFfEA0dDs-Krc-1" vertex="1">
          <mxGeometry x="167" y="583" width="42" height="30" as="geometry" />
        </mxCell>
        <mxCell id="PrdO-KSjAN5AKFsQhhlJ-4" value="" style="rounded=1;whiteSpace=wrap;html=1;" parent="BXUHvQjTFfEA0dDs-Krc-1" vertex="1">
          <mxGeometry x="216" y="653" width="42" height="30" as="geometry" />
        </mxCell>
        <mxCell id="PrdO-KSjAN5AKFsQhhlJ-32" style="edgeStyle=none;rounded=0;orthogonalLoop=1;jettySize=auto;html=1;exitX=0.5;exitY=1;exitDx=0;exitDy=0;entryX=0.5;entryY=0;entryDx=0;entryDy=0;" parent="BXUHvQjTFfEA0dDs-Krc-1" source="PrdO-KSjAN5AKFsQhhlJ-7" target="PrdO-KSjAN5AKFsQhhlJ-3" edge="1">
          <mxGeometry relative="1" as="geometry" />
        </mxCell>
        <mxCell id="PrdO-KSjAN5AKFsQhhlJ-33" style="edgeStyle=none;rounded=0;orthogonalLoop=1;jettySize=auto;html=1;exitX=0.5;exitY=1;exitDx=0;exitDy=0;entryX=0.5;entryY=0;entryDx=0;entryDy=0;" parent="BXUHvQjTFfEA0dDs-Krc-1" source="PrdO-KSjAN5AKFsQhhlJ-7" target="PrdO-KSjAN5AKFsQhhlJ-11" edge="1">
          <mxGeometry relative="1" as="geometry" />
        </mxCell>
        <mxCell id="PrdO-KSjAN5AKFsQhhlJ-7" value="" style="rounded=1;whiteSpace=wrap;html=1;" parent="BXUHvQjTFfEA0dDs-Krc-1" vertex="1">
          <mxGeometry x="264.5" y="511" width="42" height="30" as="geometry" />
        </mxCell>
        <mxCell id="PrdO-KSjAN5AKFsQhhlJ-8" value="" style="rounded=1;whiteSpace=wrap;html=1;" parent="BXUHvQjTFfEA0dDs-Krc-1" vertex="1">
          <mxGeometry x="313.5" y="653" width="42" height="30" as="geometry" />
        </mxCell>
        <mxCell id="PrdO-KSjAN5AKFsQhhlJ-38" style="edgeStyle=none;rounded=0;orthogonalLoop=1;jettySize=auto;html=1;exitX=0.5;exitY=1;exitDx=0;exitDy=0;entryX=0.5;entryY=0;entryDx=0;entryDy=0;" parent="BXUHvQjTFfEA0dDs-Krc-1" source="PrdO-KSjAN5AKFsQhhlJ-11" target="PrdO-KSjAN5AKFsQhhlJ-8" edge="1">
          <mxGeometry relative="1" as="geometry" />
        </mxCell>
        <mxCell id="PrdO-KSjAN5AKFsQhhlJ-40" style="edgeStyle=none;rounded=0;orthogonalLoop=1;jettySize=auto;html=1;exitX=0.5;exitY=1;exitDx=0;exitDy=0;entryX=0.5;entryY=0;entryDx=0;entryDy=0;" parent="BXUHvQjTFfEA0dDs-Krc-1" source="PrdO-KSjAN5AKFsQhhlJ-11" target="PrdO-KSjAN5AKFsQhhlJ-12" edge="1">
          <mxGeometry relative="1" as="geometry" />
        </mxCell>
        <mxCell id="PrdO-KSjAN5AKFsQhhlJ-11" value="" style="rounded=1;whiteSpace=wrap;html=1;" parent="BXUHvQjTFfEA0dDs-Krc-1" vertex="1">
          <mxGeometry x="362.5" y="583" width="42" height="30" as="geometry" />
        </mxCell>
        <mxCell id="PrdO-KSjAN5AKFsQhhlJ-12" value="" style="rounded=1;whiteSpace=wrap;html=1;" parent="BXUHvQjTFfEA0dDs-Krc-1" vertex="1">
          <mxGeometry x="411.5" y="653" width="42" height="30" as="geometry" />
        </mxCell>
        <mxCell id="PrdO-KSjAN5AKFsQhhlJ-30" style="rounded=0;orthogonalLoop=1;jettySize=auto;html=1;exitX=0.5;exitY=1;exitDx=0;exitDy=0;entryX=0.5;entryY=0;entryDx=0;entryDy=0;" parent="BXUHvQjTFfEA0dDs-Krc-1" source="PrdO-KSjAN5AKFsQhhlJ-15" target="PrdO-KSjAN5AKFsQhhlJ-7" edge="1">
          <mxGeometry relative="1" as="geometry" />
        </mxCell>
        <mxCell id="PrdO-KSjAN5AKFsQhhlJ-31" style="edgeStyle=none;rounded=0;orthogonalLoop=1;jettySize=auto;html=1;exitX=0.5;exitY=1;exitDx=0;exitDy=0;entryX=0.5;entryY=0;entryDx=0;entryDy=0;" parent="BXUHvQjTFfEA0dDs-Krc-1" source="PrdO-KSjAN5AKFsQhhlJ-15" target="PrdO-KSjAN5AKFsQhhlJ-23" edge="1">
          <mxGeometry relative="1" as="geometry" />
        </mxCell>
        <mxCell id="PrdO-KSjAN5AKFsQhhlJ-15" value="" style="rounded=1;whiteSpace=wrap;html=1;" parent="BXUHvQjTFfEA0dDs-Krc-1" vertex="1">
          <mxGeometry x="453.5" y="432" width="42" height="30" as="geometry" />
        </mxCell>
        <mxCell id="PrdO-KSjAN5AKFsQhhlJ-16" value="" style="rounded=1;whiteSpace=wrap;html=1;" parent="BXUHvQjTFfEA0dDs-Krc-1" vertex="1">
          <mxGeometry x="501" y="653" width="42" height="30" as="geometry" />
        </mxCell>
        <mxCell id="PrdO-KSjAN5AKFsQhhlJ-39" style="edgeStyle=none;rounded=0;orthogonalLoop=1;jettySize=auto;html=1;exitX=0.5;exitY=1;exitDx=0;exitDy=0;entryX=0.5;entryY=0;entryDx=0;entryDy=0;" parent="BXUHvQjTFfEA0dDs-Krc-1" source="PrdO-KSjAN5AKFsQhhlJ-19" target="PrdO-KSjAN5AKFsQhhlJ-16" edge="1">
          <mxGeometry relative="1" as="geometry" />
        </mxCell>
        <mxCell id="PrdO-KSjAN5AKFsQhhlJ-41" style="edgeStyle=none;rounded=0;orthogonalLoop=1;jettySize=auto;html=1;exitX=0.5;exitY=1;exitDx=0;exitDy=0;entryX=0.5;entryY=0;entryDx=0;entryDy=0;" parent="BXUHvQjTFfEA0dDs-Krc-1" source="PrdO-KSjAN5AKFsQhhlJ-19" target="PrdO-KSjAN5AKFsQhhlJ-20" edge="1">
          <mxGeometry relative="1" as="geometry" />
        </mxCell>
        <mxCell id="PrdO-KSjAN5AKFsQhhlJ-19" value="" style="rounded=1;whiteSpace=wrap;html=1;" parent="BXUHvQjTFfEA0dDs-Krc-1" vertex="1">
          <mxGeometry x="550" y="583" width="42" height="30" as="geometry" />
        </mxCell>
        <mxCell id="PrdO-KSjAN5AKFsQhhlJ-20" value="" style="rounded=1;whiteSpace=wrap;html=1;" parent="BXUHvQjTFfEA0dDs-Krc-1" vertex="1">
          <mxGeometry x="599" y="653" width="42" height="30" as="geometry" />
        </mxCell>
        <mxCell id="PrdO-KSjAN5AKFsQhhlJ-34" style="edgeStyle=none;rounded=0;orthogonalLoop=1;jettySize=auto;html=1;exitX=0.5;exitY=1;exitDx=0;exitDy=0;entryX=0.5;entryY=0;entryDx=0;entryDy=0;" parent="BXUHvQjTFfEA0dDs-Krc-1" source="PrdO-KSjAN5AKFsQhhlJ-23" target="PrdO-KSjAN5AKFsQhhlJ-19" edge="1">
          <mxGeometry relative="1" as="geometry" />
        </mxCell>
        <mxCell id="PrdO-KSjAN5AKFsQhhlJ-35" style="edgeStyle=none;rounded=0;orthogonalLoop=1;jettySize=auto;html=1;exitX=0.5;exitY=1;exitDx=0;exitDy=0;entryX=0.5;entryY=0;entryDx=0;entryDy=0;" parent="BXUHvQjTFfEA0dDs-Krc-1" source="PrdO-KSjAN5AKFsQhhlJ-23" target="PrdO-KSjAN5AKFsQhhlJ-27" edge="1">
          <mxGeometry relative="1" as="geometry" />
        </mxCell>
        <mxCell id="PrdO-KSjAN5AKFsQhhlJ-23" value="" style="rounded=1;whiteSpace=wrap;html=1;" parent="BXUHvQjTFfEA0dDs-Krc-1" vertex="1">
          <mxGeometry x="647.5" y="511" width="42" height="30" as="geometry" />
        </mxCell>
        <mxCell id="PrdO-KSjAN5AKFsQhhlJ-24" value="" style="rounded=1;whiteSpace=wrap;html=1;" parent="BXUHvQjTFfEA0dDs-Krc-1" vertex="1">
          <mxGeometry x="697" y="653" width="42" height="30" as="geometry" />
        </mxCell>
        <mxCell id="PrdO-KSjAN5AKFsQhhlJ-42" style="edgeStyle=none;rounded=0;orthogonalLoop=1;jettySize=auto;html=1;exitX=0.5;exitY=1;exitDx=0;exitDy=0;entryX=0.5;entryY=0;entryDx=0;entryDy=0;" parent="BXUHvQjTFfEA0dDs-Krc-1" source="PrdO-KSjAN5AKFsQhhlJ-27" target="PrdO-KSjAN5AKFsQhhlJ-28" edge="1">
          <mxGeometry relative="1" as="geometry" />
        </mxCell>
        <mxCell id="PrdO-KSjAN5AKFsQhhlJ-43" style="edgeStyle=none;rounded=0;orthogonalLoop=1;jettySize=auto;html=1;exitX=0.5;exitY=1;exitDx=0;exitDy=0;entryX=0.5;entryY=0;entryDx=0;entryDy=0;" parent="BXUHvQjTFfEA0dDs-Krc-1" source="PrdO-KSjAN5AKFsQhhlJ-27" target="PrdO-KSjAN5AKFsQhhlJ-24" edge="1">
          <mxGeometry relative="1" as="geometry" />
        </mxCell>
        <mxCell id="PrdO-KSjAN5AKFsQhhlJ-27" value="" style="rounded=1;whiteSpace=wrap;html=1;" parent="BXUHvQjTFfEA0dDs-Krc-1" vertex="1">
          <mxGeometry x="746" y="583" width="42" height="30" as="geometry" />
        </mxCell>
        <mxCell id="PrdO-KSjAN5AKFsQhhlJ-28" value="" style="rounded=1;whiteSpace=wrap;html=1;" parent="BXUHvQjTFfEA0dDs-Krc-1" vertex="1">
          <mxGeometry x="795" y="653" width="42" height="30" as="geometry" />
        </mxCell>
        <mxCell id="PrdO-KSjAN5AKFsQhhlJ-44" value="&lt;font style=&quot;font-size: 16px&quot;&gt;Ebene 4&lt;/font&gt;" style="rounded=1;whiteSpace=wrap;html=1;fillColor=#dae8fc;strokeColor=#6c8ebf;opacity=30;align=right;" parent="BXUHvQjTFfEA0dDs-Krc-1" vertex="1">
          <mxGeometry x="113" y="648.5" width="843" height="39" as="geometry" />
        </mxCell>
        <mxCell id="PrdO-KSjAN5AKFsQhhlJ-45" value="&lt;font style=&quot;font-size: 16px&quot;&gt;Ebene 3&lt;/font&gt;" style="rounded=1;whiteSpace=wrap;html=1;fillColor=#dae8fc;strokeColor=#6c8ebf;opacity=30;align=right;" parent="BXUHvQjTFfEA0dDs-Krc-1" vertex="1">
          <mxGeometry x="113" y="578.5" width="843" height="39" as="geometry" />
        </mxCell>
        <mxCell id="PrdO-KSjAN5AKFsQhhlJ-46" value="&lt;font style=&quot;font-size: 16px&quot;&gt;Ebene 2&lt;/font&gt;" style="rounded=1;whiteSpace=wrap;html=1;fillColor=#dae8fc;strokeColor=#6c8ebf;opacity=30;align=right;" parent="BXUHvQjTFfEA0dDs-Krc-1" vertex="1">
          <mxGeometry x="113" y="506.5" width="843" height="39" as="geometry" />
        </mxCell>
        <mxCell id="PrdO-KSjAN5AKFsQhhlJ-47" value="&lt;font style=&quot;font-size: 16px&quot;&gt;Ebene 1&lt;/font&gt;" style="rounded=1;whiteSpace=wrap;html=1;fillColor=#dae8fc;strokeColor=#6c8ebf;opacity=30;align=right;" parent="BXUHvQjTFfEA0dDs-Krc-1" vertex="1">
          <mxGeometry x="113" y="427.5" width="843" height="39" as="geometry" />
        </mxCell>
      </root>
    </mxGraphModel>
  </diagram>
  <diagram id="JuYXb7I_1UV84GD5YxeN" name="Klassendiagramme">
    <mxGraphModel dx="946" dy="620" grid="0" gridSize="10" guides="1" tooltips="1" connect="1" arrows="1" fold="1" page="1" pageScale="1" pageWidth="1169" pageHeight="827" math="0" shadow="0">
      <root>
        <mxCell id="PySQQeqjKEQNnzRnkN3r-0" />
        <mxCell id="PySQQeqjKEQNnzRnkN3r-1" parent="PySQQeqjKEQNnzRnkN3r-0" />
        <mxCell id="cBjdJicqprbUQp7XBYdH-2" value="" style="edgeStyle=orthogonalEdgeStyle;rounded=0;orthogonalLoop=1;jettySize=auto;html=1;endArrow=none;endFill=0;" parent="PySQQeqjKEQNnzRnkN3r-1" source="cBjdJicqprbUQp7XBYdH-0" target="cBjdJicqprbUQp7XBYdH-1" edge="1">
          <mxGeometry relative="1" as="geometry" />
        </mxCell>
        <mxCell id="cBjdJicqprbUQp7XBYdH-20" value="&amp;gt; hat als Wurzel" style="edgeLabel;html=1;align=center;verticalAlign=middle;resizable=0;points=[];" parent="cBjdJicqprbUQp7XBYdH-2" vertex="1" connectable="0">
          <mxGeometry y="-1" relative="1" as="geometry">
            <mxPoint y="-10" as="offset" />
          </mxGeometry>
        </mxCell>
        <mxCell id="cBjdJicqprbUQp7XBYdH-0" value="&lt;b&gt;Binaerbaum&lt;/b&gt;" style="html=1;" parent="PySQQeqjKEQNnzRnkN3r-1" vertex="1">
          <mxGeometry x="143" y="132" width="94" height="35" as="geometry" />
        </mxCell>
        <mxCell id="cBjdJicqprbUQp7XBYdH-1" value="&lt;i&gt;&lt;b&gt;Baumelement&lt;/b&gt;&lt;/i&gt;" style="html=1;" parent="PySQQeqjKEQNnzRnkN3r-1" vertex="1">
          <mxGeometry x="345" y="132" width="94" height="35" as="geometry" />
        </mxCell>
        <mxCell id="cBjdJicqprbUQp7XBYdH-5" style="edgeStyle=orthogonalEdgeStyle;rounded=0;orthogonalLoop=1;jettySize=auto;html=1;exitX=0.5;exitY=0;exitDx=0;exitDy=0;entryX=0.5;entryY=1;entryDx=0;entryDy=0;endArrow=block;endFill=0;" parent="PySQQeqjKEQNnzRnkN3r-1" source="cBjdJicqprbUQp7XBYdH-3" target="cBjdJicqprbUQp7XBYdH-1" edge="1">
          <mxGeometry relative="1" as="geometry" />
        </mxCell>
        <mxCell id="cBjdJicqprbUQp7XBYdH-3" value="&lt;b&gt;Abschluss&lt;/b&gt;" style="html=1;" parent="PySQQeqjKEQNnzRnkN3r-1" vertex="1">
          <mxGeometry x="283" y="223" width="94" height="35" as="geometry" />
        </mxCell>
        <mxCell id="cBjdJicqprbUQp7XBYdH-6" style="edgeStyle=orthogonalEdgeStyle;rounded=0;orthogonalLoop=1;jettySize=auto;html=1;exitX=0.5;exitY=0;exitDx=0;exitDy=0;entryX=0.5;entryY=1;entryDx=0;entryDy=0;endArrow=block;endFill=0;" parent="PySQQeqjKEQNnzRnkN3r-1" source="cBjdJicqprbUQp7XBYdH-4" target="cBjdJicqprbUQp7XBYdH-1" edge="1">
          <mxGeometry relative="1" as="geometry" />
        </mxCell>
        <mxCell id="cBjdJicqprbUQp7XBYdH-7" style="edgeStyle=orthogonalEdgeStyle;rounded=0;orthogonalLoop=1;jettySize=auto;html=1;exitX=1;exitY=0.5;exitDx=0;exitDy=0;entryX=0.5;entryY=0;entryDx=0;entryDy=0;endArrow=none;endFill=0;" parent="PySQQeqjKEQNnzRnkN3r-1" source="cBjdJicqprbUQp7XBYdH-4" target="cBjdJicqprbUQp7XBYdH-1" edge="1">
          <mxGeometry relative="1" as="geometry" />
        </mxCell>
        <mxCell id="cBjdJicqprbUQp7XBYdH-12" value="&amp;lt; hat als Nachfolger" style="edgeLabel;html=1;align=center;verticalAlign=middle;resizable=0;points=[];" parent="cBjdJicqprbUQp7XBYdH-7" vertex="1" connectable="0">
          <mxGeometry x="0.3815" y="-4" relative="1" as="geometry">
            <mxPoint x="15" y="-8" as="offset" />
          </mxGeometry>
        </mxCell>
        <mxCell id="cBjdJicqprbUQp7XBYdH-4" value="&lt;b&gt;Knoten&lt;/b&gt;" style="html=1;" parent="PySQQeqjKEQNnzRnkN3r-1" vertex="1">
          <mxGeometry x="407" y="223" width="94" height="35" as="geometry" />
        </mxCell>
        <mxCell id="cBjdJicqprbUQp7XBYdH-9" value="" style="edgeStyle=orthogonalEdgeStyle;rounded=0;orthogonalLoop=1;jettySize=auto;html=1;endArrow=none;endFill=0;" parent="PySQQeqjKEQNnzRnkN3r-1" source="cBjdJicqprbUQp7XBYdH-8" target="cBjdJicqprbUQp7XBYdH-4" edge="1">
          <mxGeometry relative="1" as="geometry" />
        </mxCell>
        <mxCell id="cBjdJicqprbUQp7XBYdH-21" value="&amp;gt; hat als Daten" style="edgeLabel;html=1;align=center;verticalAlign=middle;resizable=0;points=[];" parent="cBjdJicqprbUQp7XBYdH-9" vertex="1" connectable="0">
          <mxGeometry x="0.2558" y="-2" relative="1" as="geometry">
            <mxPoint x="37" y="3" as="offset" />
          </mxGeometry>
        </mxCell>
        <mxCell id="cBjdJicqprbUQp7XBYdH-8" value="«interface»&lt;br&gt;&lt;b&gt;Datenelement&lt;/b&gt;" style="html=1;" parent="PySQQeqjKEQNnzRnkN3r-1" vertex="1">
          <mxGeometry x="407" y="295" width="94" height="38" as="geometry" />
        </mxCell>
        <mxCell id="cBjdJicqprbUQp7XBYdH-11" value="" style="edgeStyle=orthogonalEdgeStyle;rounded=0;orthogonalLoop=1;jettySize=auto;html=1;dashed=1;endArrow=block;endFill=0;" parent="PySQQeqjKEQNnzRnkN3r-1" source="cBjdJicqprbUQp7XBYdH-10" target="cBjdJicqprbUQp7XBYdH-8" edge="1">
          <mxGeometry relative="1" as="geometry" />
        </mxCell>
        <mxCell id="cBjdJicqprbUQp7XBYdH-10" value="&lt;b&gt;Zahl&lt;/b&gt;" style="html=1;" parent="PySQQeqjKEQNnzRnkN3r-1" vertex="1">
          <mxGeometry x="407" y="379" width="94" height="35" as="geometry" />
        </mxCell>
        <mxCell id="cBjdJicqprbUQp7XBYdH-13" value="2" style="text;html=1;align=center;verticalAlign=middle;resizable=0;points=[];autosize=1;strokeColor=none;fillColor=none;" parent="PySQQeqjKEQNnzRnkN3r-1" vertex="1">
          <mxGeometry x="374" y="114" width="17" height="18" as="geometry" />
        </mxCell>
        <mxCell id="cBjdJicqprbUQp7XBYdH-14" value="1" style="text;html=1;align=center;verticalAlign=middle;resizable=0;points=[];autosize=1;strokeColor=none;fillColor=none;" parent="PySQQeqjKEQNnzRnkN3r-1" vertex="1">
          <mxGeometry x="501" y="240" width="17" height="18" as="geometry" />
        </mxCell>
        <mxCell id="cBjdJicqprbUQp7XBYdH-17" value="1" style="text;html=1;align=center;verticalAlign=middle;resizable=0;points=[];autosize=1;strokeColor=none;fillColor=none;" parent="PySQQeqjKEQNnzRnkN3r-1" vertex="1">
          <mxGeometry x="237" y="149" width="17" height="18" as="geometry" />
        </mxCell>
        <mxCell id="cBjdJicqprbUQp7XBYdH-19" value="1" style="text;html=1;align=center;verticalAlign=middle;resizable=0;points=[];autosize=1;strokeColor=none;fillColor=none;" parent="PySQQeqjKEQNnzRnkN3r-1" vertex="1">
          <mxGeometry x="328" y="150" width="17" height="18" as="geometry" />
        </mxCell>
        <mxCell id="cBjdJicqprbUQp7XBYdH-22" value="1" style="text;html=1;align=center;verticalAlign=middle;resizable=0;points=[];autosize=1;strokeColor=none;fillColor=none;" parent="PySQQeqjKEQNnzRnkN3r-1" vertex="1">
          <mxGeometry x="439" y="258" width="17" height="18" as="geometry" />
        </mxCell>
        <mxCell id="cBjdJicqprbUQp7XBYdH-23" value="1" style="text;html=1;align=center;verticalAlign=middle;resizable=0;points=[];autosize=1;strokeColor=none;fillColor=none;" parent="PySQQeqjKEQNnzRnkN3r-1" vertex="1">
          <mxGeometry x="439" y="276" width="17" height="18" as="geometry" />
        </mxCell>
        <mxCell id="cBjdJicqprbUQp7XBYdH-36" value="&lt;p style=&quot;margin: 0px ; margin-top: 4px ; text-align: center&quot;&gt;&lt;b&gt;Binaerbaum&lt;/b&gt;&lt;/p&gt;&lt;hr size=&quot;1&quot;&gt;&lt;p style=&quot;margin: 0px ; margin-left: 4px&quot;&gt;- wurzel: Baumelement&lt;/p&gt;&lt;hr size=&quot;1&quot;&gt;&lt;p style=&quot;margin: 0px ; margin-left: 4px&quot;&gt;+ einfuegen(Datenelement): void&lt;/p&gt;" style="verticalAlign=top;align=left;overflow=fill;fontSize=12;fontFamily=Helvetica;html=1;" parent="PySQQeqjKEQNnzRnkN3r-1" vertex="1">
          <mxGeometry x="75" y="453" width="192" height="80" as="geometry" />
        </mxCell>
        <mxCell id="cBjdJicqprbUQp7XBYdH-37" style="edgeStyle=orthogonalEdgeStyle;rounded=0;orthogonalLoop=1;jettySize=auto;html=1;exitX=0.5;exitY=1;exitDx=0;exitDy=0;dashed=1;endArrow=block;endFill=0;" parent="PySQQeqjKEQNnzRnkN3r-1" source="cBjdJicqprbUQp7XBYdH-36" target="cBjdJicqprbUQp7XBYdH-36" edge="1">
          <mxGeometry relative="1" as="geometry" />
        </mxCell>
        <mxCell id="cBjdJicqprbUQp7XBYdH-43" style="edgeStyle=orthogonalEdgeStyle;rounded=0;orthogonalLoop=1;jettySize=auto;html=1;exitX=0.5;exitY=0;exitDx=0;exitDy=0;entryX=0.5;entryY=1;entryDx=0;entryDy=0;endArrow=block;endFill=0;" parent="PySQQeqjKEQNnzRnkN3r-1" source="cBjdJicqprbUQp7XBYdH-38" target="cBjdJicqprbUQp7XBYdH-42" edge="1">
          <mxGeometry relative="1" as="geometry" />
        </mxCell>
        <mxCell id="cBjdJicqprbUQp7XBYdH-38" value="&lt;p style=&quot;margin: 0px ; margin-top: 4px ; text-align: center&quot;&gt;&lt;b&gt;Abschluss&lt;/b&gt;&lt;/p&gt;&lt;hr size=&quot;1&quot;&gt;&lt;p style=&quot;margin: 0px ; margin-left: 4px&quot;&gt;&lt;br&gt;&lt;/p&gt;&lt;hr size=&quot;1&quot;&gt;&lt;p style=&quot;margin: 0px ; margin-left: 4px&quot;&gt;+ einfuegen(Datenelement): Baumelement&lt;/p&gt;&lt;p style=&quot;margin: 0px ; margin-left: 4px&quot;&gt;+ druckeBaum(String, boolean): void&lt;/p&gt;" style="verticalAlign=top;align=left;overflow=fill;fontSize=12;fontFamily=Helvetica;html=1;" parent="PySQQeqjKEQNnzRnkN3r-1" vertex="1">
          <mxGeometry x="294" y="645" width="242" height="119" as="geometry" />
        </mxCell>
        <mxCell id="cBjdJicqprbUQp7XBYdH-39" style="edgeStyle=orthogonalEdgeStyle;rounded=0;orthogonalLoop=1;jettySize=auto;html=1;exitX=0.5;exitY=1;exitDx=0;exitDy=0;dashed=1;endArrow=block;endFill=0;" parent="PySQQeqjKEQNnzRnkN3r-1" source="cBjdJicqprbUQp7XBYdH-38" target="cBjdJicqprbUQp7XBYdH-38" edge="1">
          <mxGeometry relative="1" as="geometry" />
        </mxCell>
        <mxCell id="cBjdJicqprbUQp7XBYdH-44" style="edgeStyle=orthogonalEdgeStyle;rounded=0;orthogonalLoop=1;jettySize=auto;html=1;exitX=0.5;exitY=0;exitDx=0;exitDy=0;endArrow=block;endFill=0;" parent="PySQQeqjKEQNnzRnkN3r-1" source="cBjdJicqprbUQp7XBYdH-40" target="cBjdJicqprbUQp7XBYdH-42" edge="1">
          <mxGeometry relative="1" as="geometry" />
        </mxCell>
        <mxCell id="cBjdJicqprbUQp7XBYdH-45" style="edgeStyle=orthogonalEdgeStyle;rounded=0;orthogonalLoop=1;jettySize=auto;html=1;exitX=1;exitY=0.5;exitDx=0;exitDy=0;endArrow=none;endFill=0;entryX=0.5;entryY=0;entryDx=0;entryDy=0;" parent="PySQQeqjKEQNnzRnkN3r-1" source="cBjdJicqprbUQp7XBYdH-40" target="cBjdJicqprbUQp7XBYdH-42" edge="1">
          <mxGeometry relative="1" as="geometry">
            <mxPoint x="835" y="590" as="targetPoint" />
          </mxGeometry>
        </mxCell>
        <mxCell id="cBjdJicqprbUQp7XBYdH-46" value="&amp;lt; hat als Nachfolger" style="edgeLabel;html=1;align=center;verticalAlign=middle;resizable=0;points=[];" parent="cBjdJicqprbUQp7XBYdH-45" vertex="1" connectable="0">
          <mxGeometry x="0.3454" relative="1" as="geometry">
            <mxPoint x="3" y="-13" as="offset" />
          </mxGeometry>
        </mxCell>
        <mxCell id="cBjdJicqprbUQp7XBYdH-40" value="&lt;p style=&quot;margin: 0px ; margin-top: 4px ; text-align: center&quot;&gt;&lt;b&gt;Knoten&lt;/b&gt;&lt;/p&gt;&lt;hr size=&quot;1&quot;&gt;&lt;p style=&quot;margin: 0px ; margin-left: 4px&quot;&gt;- links: Baumelement&lt;/p&gt;&lt;p style=&quot;margin: 0px ; margin-left: 4px&quot;&gt;- rechts: Baumelement&lt;/p&gt;&lt;p style=&quot;margin: 0px ; margin-left: 4px&quot;&gt;- daten: Datenelement&lt;/p&gt;&lt;hr size=&quot;1&quot;&gt;&lt;p style=&quot;margin: 0px ; margin-left: 4px&quot;&gt;+ einfuegen(Datenelement): Baumelement&lt;/p&gt;&lt;p style=&quot;margin: 0px ; margin-left: 4px&quot;&gt;+ druckeBaum(String, boolean): void&lt;/p&gt;" style="verticalAlign=top;align=left;overflow=fill;fontSize=12;fontFamily=Helvetica;html=1;" parent="PySQQeqjKEQNnzRnkN3r-1" vertex="1">
          <mxGeometry x="554" y="645" width="234" height="119" as="geometry" />
        </mxCell>
        <mxCell id="cBjdJicqprbUQp7XBYdH-42" value="«abstract»&lt;br&gt;&lt;b&gt;Baumelement&lt;/b&gt;" style="html=1;" parent="PySQQeqjKEQNnzRnkN3r-1" vertex="1">
          <mxGeometry x="492" y="531" width="110" height="50" as="geometry" />
        </mxCell>
        <mxCell id="cBjdJicqprbUQp7XBYdH-47" value="2" style="text;html=1;align=center;verticalAlign=middle;resizable=0;points=[];autosize=1;strokeColor=none;fillColor=none;" parent="PySQQeqjKEQNnzRnkN3r-1" vertex="1">
          <mxGeometry x="529" y="515" width="17" height="18" as="geometry" />
        </mxCell>
        <mxCell id="cBjdJicqprbUQp7XBYdH-48" value="1" style="text;html=1;align=center;verticalAlign=middle;resizable=0;points=[];autosize=1;strokeColor=none;fillColor=none;" parent="PySQQeqjKEQNnzRnkN3r-1" vertex="1">
          <mxGeometry x="788" y="708" width="17" height="18" as="geometry" />
        </mxCell>
      </root>
    </mxGraphModel>
  </diagram>
  <diagram id="X_Cfo_OVi9rQCFi444vu" name="Löschen">
    <mxGraphModel dx="946" dy="620" grid="0" gridSize="10" guides="1" tooltips="1" connect="1" arrows="1" fold="1" page="1" pageScale="1" pageWidth="1169" pageHeight="827" math="0" shadow="0">
      <root>
        <mxCell id="xLAQh5WOrPh9FkQcrA83-0" />
        <mxCell id="xLAQh5WOrPh9FkQcrA83-1" parent="xLAQh5WOrPh9FkQcrA83-0" />
        <mxCell id="xLAQh5WOrPh9FkQcrA83-2" value="7" style="rounded=1;whiteSpace=wrap;html=1;" vertex="1" parent="xLAQh5WOrPh9FkQcrA83-1">
          <mxGeometry x="80" y="381" width="42" height="30" as="geometry" />
        </mxCell>
        <mxCell id="xLAQh5WOrPh9FkQcrA83-3" style="edgeStyle=none;rounded=0;orthogonalLoop=1;jettySize=auto;html=1;exitX=0.5;exitY=1;exitDx=0;exitDy=0;entryX=0.5;entryY=0;entryDx=0;entryDy=0;" edge="1" parent="xLAQh5WOrPh9FkQcrA83-1" source="xLAQh5WOrPh9FkQcrA83-5" target="xLAQh5WOrPh9FkQcrA83-2">
          <mxGeometry relative="1" as="geometry" />
        </mxCell>
        <mxCell id="xLAQh5WOrPh9FkQcrA83-4" style="edgeStyle=none;rounded=0;orthogonalLoop=1;jettySize=auto;html=1;exitX=0.5;exitY=1;exitDx=0;exitDy=0;entryX=0.5;entryY=0;entryDx=0;entryDy=0;" edge="1" parent="xLAQh5WOrPh9FkQcrA83-1" source="xLAQh5WOrPh9FkQcrA83-5" target="xLAQh5WOrPh9FkQcrA83-6">
          <mxGeometry relative="1" as="geometry" />
        </mxCell>
        <mxCell id="xLAQh5WOrPh9FkQcrA83-5" value="13" style="rounded=1;whiteSpace=wrap;html=1;" vertex="1" parent="xLAQh5WOrPh9FkQcrA83-1">
          <mxGeometry x="129" y="311" width="42" height="30" as="geometry" />
        </mxCell>
        <mxCell id="xLAQh5WOrPh9FkQcrA83-6" value="20" style="rounded=1;whiteSpace=wrap;html=1;" vertex="1" parent="xLAQh5WOrPh9FkQcrA83-1">
          <mxGeometry x="178" y="381" width="42" height="30" as="geometry" />
        </mxCell>
        <mxCell id="xLAQh5WOrPh9FkQcrA83-7" style="edgeStyle=none;rounded=0;orthogonalLoop=1;jettySize=auto;html=1;exitX=0.5;exitY=1;exitDx=0;exitDy=0;entryX=0.5;entryY=0;entryDx=0;entryDy=0;" edge="1" parent="xLAQh5WOrPh9FkQcrA83-1" source="xLAQh5WOrPh9FkQcrA83-9" target="xLAQh5WOrPh9FkQcrA83-5">
          <mxGeometry relative="1" as="geometry" />
        </mxCell>
        <mxCell id="xLAQh5WOrPh9FkQcrA83-8" style="edgeStyle=none;rounded=0;orthogonalLoop=1;jettySize=auto;html=1;exitX=0.5;exitY=1;exitDx=0;exitDy=0;entryX=0.5;entryY=0;entryDx=0;entryDy=0;" edge="1" parent="xLAQh5WOrPh9FkQcrA83-1" source="xLAQh5WOrPh9FkQcrA83-9" target="xLAQh5WOrPh9FkQcrA83-13">
          <mxGeometry relative="1" as="geometry" />
        </mxCell>
        <mxCell id="xLAQh5WOrPh9FkQcrA83-9" value="37" style="rounded=1;whiteSpace=wrap;html=1;" vertex="1" parent="xLAQh5WOrPh9FkQcrA83-1">
          <mxGeometry x="226.5" y="239" width="42" height="30" as="geometry" />
        </mxCell>
        <mxCell id="xLAQh5WOrPh9FkQcrA83-10" value="39" style="rounded=1;whiteSpace=wrap;html=1;" vertex="1" parent="xLAQh5WOrPh9FkQcrA83-1">
          <mxGeometry x="275.5" y="381" width="42" height="30" as="geometry" />
        </mxCell>
        <mxCell id="xLAQh5WOrPh9FkQcrA83-11" style="edgeStyle=none;rounded=0;orthogonalLoop=1;jettySize=auto;html=1;exitX=0.5;exitY=1;exitDx=0;exitDy=0;entryX=0.5;entryY=0;entryDx=0;entryDy=0;" edge="1" parent="xLAQh5WOrPh9FkQcrA83-1" source="xLAQh5WOrPh9FkQcrA83-13" target="xLAQh5WOrPh9FkQcrA83-10">
          <mxGeometry relative="1" as="geometry" />
        </mxCell>
        <mxCell id="xLAQh5WOrPh9FkQcrA83-12" style="edgeStyle=none;rounded=0;orthogonalLoop=1;jettySize=auto;html=1;exitX=0.5;exitY=1;exitDx=0;exitDy=0;entryX=0.5;entryY=0;entryDx=0;entryDy=0;" edge="1" parent="xLAQh5WOrPh9FkQcrA83-1" source="xLAQh5WOrPh9FkQcrA83-13" target="xLAQh5WOrPh9FkQcrA83-14">
          <mxGeometry relative="1" as="geometry" />
        </mxCell>
        <mxCell id="xLAQh5WOrPh9FkQcrA83-13" value="41" style="rounded=1;whiteSpace=wrap;html=1;" vertex="1" parent="xLAQh5WOrPh9FkQcrA83-1">
          <mxGeometry x="324.5" y="311" width="42" height="30" as="geometry" />
        </mxCell>
        <mxCell id="xLAQh5WOrPh9FkQcrA83-14" value="42" style="rounded=1;whiteSpace=wrap;html=1;" vertex="1" parent="xLAQh5WOrPh9FkQcrA83-1">
          <mxGeometry x="373.5" y="381" width="42" height="30" as="geometry" />
        </mxCell>
        <mxCell id="xLAQh5WOrPh9FkQcrA83-15" style="rounded=0;orthogonalLoop=1;jettySize=auto;html=1;exitX=0.5;exitY=1;exitDx=0;exitDy=0;entryX=0.5;entryY=0;entryDx=0;entryDy=0;" edge="1" parent="xLAQh5WOrPh9FkQcrA83-1" source="xLAQh5WOrPh9FkQcrA83-17" target="xLAQh5WOrPh9FkQcrA83-9">
          <mxGeometry relative="1" as="geometry" />
        </mxCell>
        <mxCell id="xLAQh5WOrPh9FkQcrA83-16" style="edgeStyle=none;rounded=0;orthogonalLoop=1;jettySize=auto;html=1;exitX=0.5;exitY=1;exitDx=0;exitDy=0;entryX=0.5;entryY=0;entryDx=0;entryDy=0;" edge="1" parent="xLAQh5WOrPh9FkQcrA83-1" source="xLAQh5WOrPh9FkQcrA83-17" target="xLAQh5WOrPh9FkQcrA83-25">
          <mxGeometry relative="1" as="geometry" />
        </mxCell>
        <mxCell id="xLAQh5WOrPh9FkQcrA83-17" value="43" style="rounded=1;whiteSpace=wrap;html=1;" vertex="1" parent="xLAQh5WOrPh9FkQcrA83-1">
          <mxGeometry x="415.5" y="160" width="42" height="30" as="geometry" />
        </mxCell>
        <mxCell id="xLAQh5WOrPh9FkQcrA83-24" style="edgeStyle=none;rounded=0;orthogonalLoop=1;jettySize=auto;html=1;exitX=0.5;exitY=1;exitDx=0;exitDy=0;entryX=0.5;entryY=0;entryDx=0;entryDy=0;" edge="1" parent="xLAQh5WOrPh9FkQcrA83-1" source="xLAQh5WOrPh9FkQcrA83-25" target="xLAQh5WOrPh9FkQcrA83-29">
          <mxGeometry relative="1" as="geometry" />
        </mxCell>
        <mxCell id="xLAQh5WOrPh9FkQcrA83-25" value="98" style="rounded=1;whiteSpace=wrap;html=1;" vertex="1" parent="xLAQh5WOrPh9FkQcrA83-1">
          <mxGeometry x="609.5" y="239" width="42" height="30" as="geometry" />
        </mxCell>
        <mxCell id="xLAQh5WOrPh9FkQcrA83-26" value="99" style="rounded=1;whiteSpace=wrap;html=1;" vertex="1" parent="xLAQh5WOrPh9FkQcrA83-1">
          <mxGeometry x="659" y="381" width="42" height="30" as="geometry" />
        </mxCell>
        <mxCell id="xLAQh5WOrPh9FkQcrA83-27" style="edgeStyle=none;rounded=0;orthogonalLoop=1;jettySize=auto;html=1;exitX=0.5;exitY=1;exitDx=0;exitDy=0;entryX=0.5;entryY=0;entryDx=0;entryDy=0;" edge="1" parent="xLAQh5WOrPh9FkQcrA83-1" source="xLAQh5WOrPh9FkQcrA83-29" target="xLAQh5WOrPh9FkQcrA83-30">
          <mxGeometry relative="1" as="geometry" />
        </mxCell>
        <mxCell id="xLAQh5WOrPh9FkQcrA83-28" style="edgeStyle=none;rounded=0;orthogonalLoop=1;jettySize=auto;html=1;exitX=0.5;exitY=1;exitDx=0;exitDy=0;entryX=0.5;entryY=0;entryDx=0;entryDy=0;" edge="1" parent="xLAQh5WOrPh9FkQcrA83-1" source="xLAQh5WOrPh9FkQcrA83-29" target="xLAQh5WOrPh9FkQcrA83-26">
          <mxGeometry relative="1" as="geometry" />
        </mxCell>
        <mxCell id="xLAQh5WOrPh9FkQcrA83-29" value="105" style="rounded=1;whiteSpace=wrap;html=1;" vertex="1" parent="xLAQh5WOrPh9FkQcrA83-1">
          <mxGeometry x="708" y="311" width="42" height="30" as="geometry" />
        </mxCell>
        <mxCell id="xLAQh5WOrPh9FkQcrA83-30" value="110" style="rounded=1;whiteSpace=wrap;html=1;" vertex="1" parent="xLAQh5WOrPh9FkQcrA83-1">
          <mxGeometry x="757" y="381" width="42" height="30" as="geometry" />
        </mxCell>
        <mxCell id="xLAQh5WOrPh9FkQcrA83-31" value="38" style="rounded=1;whiteSpace=wrap;html=1;" vertex="1" parent="xLAQh5WOrPh9FkQcrA83-1">
          <mxGeometry x="237" y="467" width="42" height="30" as="geometry" />
        </mxCell>
        <mxCell id="xLAQh5WOrPh9FkQcrA83-32" style="edgeStyle=none;rounded=0;orthogonalLoop=1;jettySize=auto;html=1;exitX=0.5;exitY=1;exitDx=0;exitDy=0;entryX=0.5;entryY=0;entryDx=0;entryDy=0;" edge="1" parent="xLAQh5WOrPh9FkQcrA83-1" target="xLAQh5WOrPh9FkQcrA83-31" source="xLAQh5WOrPh9FkQcrA83-10">
          <mxGeometry relative="1" as="geometry">
            <mxPoint x="307" y="427" as="sourcePoint" />
          </mxGeometry>
        </mxCell>
        <mxCell id="xLAQh5WOrPh9FkQcrA83-35" value="" style="ellipse;whiteSpace=wrap;html=1;aspect=fixed;fillColor=#000000;" vertex="1" parent="xLAQh5WOrPh9FkQcrA83-1">
          <mxGeometry x="299" y="408" width="7" height="7" as="geometry" />
        </mxCell>
        <mxCell id="xLAQh5WOrPh9FkQcrA83-37" value="" style="ellipse;whiteSpace=wrap;html=1;aspect=fixed;fillColor=#000000;" vertex="1" parent="xLAQh5WOrPh9FkQcrA83-1">
          <mxGeometry x="623" y="266" width="7" height="7" as="geometry" />
        </mxCell>
        <mxCell id="xLAQh5WOrPh9FkQcrA83-40" value="" style="ellipse;whiteSpace=wrap;html=1;aspect=fixed;fillColor=#000000;" vertex="1" parent="xLAQh5WOrPh9FkQcrA83-1">
          <mxGeometry x="387" y="408" width="7" height="7" as="geometry" />
        </mxCell>
        <mxCell id="xLAQh5WOrPh9FkQcrA83-41" value="" style="ellipse;whiteSpace=wrap;html=1;aspect=fixed;fillColor=#000000;" vertex="1" parent="xLAQh5WOrPh9FkQcrA83-1">
          <mxGeometry x="396" y="408" width="7" height="7" as="geometry" />
        </mxCell>
        <mxCell id="xLAQh5WOrPh9FkQcrA83-44" value="" style="group" vertex="1" connectable="0" parent="xLAQh5WOrPh9FkQcrA83-1">
          <mxGeometry x="670" y="408" width="16" height="7" as="geometry" />
        </mxCell>
        <mxCell id="xLAQh5WOrPh9FkQcrA83-42" value="" style="ellipse;whiteSpace=wrap;html=1;aspect=fixed;fillColor=#000000;" vertex="1" parent="xLAQh5WOrPh9FkQcrA83-44">
          <mxGeometry width="7" height="7" as="geometry" />
        </mxCell>
        <mxCell id="xLAQh5WOrPh9FkQcrA83-43" value="" style="ellipse;whiteSpace=wrap;html=1;aspect=fixed;fillColor=#000000;" vertex="1" parent="xLAQh5WOrPh9FkQcrA83-44">
          <mxGeometry x="9" width="7" height="7" as="geometry" />
        </mxCell>
        <mxCell id="xLAQh5WOrPh9FkQcrA83-45" value="" style="group" vertex="1" connectable="0" parent="xLAQh5WOrPh9FkQcrA83-1">
          <mxGeometry x="770" y="408" width="16" height="7" as="geometry" />
        </mxCell>
        <mxCell id="xLAQh5WOrPh9FkQcrA83-46" value="" style="ellipse;whiteSpace=wrap;html=1;aspect=fixed;fillColor=#000000;" vertex="1" parent="xLAQh5WOrPh9FkQcrA83-45">
          <mxGeometry width="7" height="7" as="geometry" />
        </mxCell>
        <mxCell id="xLAQh5WOrPh9FkQcrA83-47" value="" style="ellipse;whiteSpace=wrap;html=1;aspect=fixed;fillColor=#000000;" vertex="1" parent="xLAQh5WOrPh9FkQcrA83-45">
          <mxGeometry x="9" width="7" height="7" as="geometry" />
        </mxCell>
        <mxCell id="xLAQh5WOrPh9FkQcrA83-48" value="" style="group" vertex="1" connectable="0" parent="xLAQh5WOrPh9FkQcrA83-1">
          <mxGeometry x="250" y="494" width="16" height="7" as="geometry" />
        </mxCell>
        <mxCell id="xLAQh5WOrPh9FkQcrA83-49" value="" style="ellipse;whiteSpace=wrap;html=1;aspect=fixed;fillColor=#000000;" vertex="1" parent="xLAQh5WOrPh9FkQcrA83-48">
          <mxGeometry width="7" height="7" as="geometry" />
        </mxCell>
        <mxCell id="xLAQh5WOrPh9FkQcrA83-50" value="" style="ellipse;whiteSpace=wrap;html=1;aspect=fixed;fillColor=#000000;" vertex="1" parent="xLAQh5WOrPh9FkQcrA83-48">
          <mxGeometry x="9" width="7" height="7" as="geometry" />
        </mxCell>
        <mxCell id="xLAQh5WOrPh9FkQcrA83-51" value="" style="group" vertex="1" connectable="0" parent="xLAQh5WOrPh9FkQcrA83-1">
          <mxGeometry x="191" y="408" width="16" height="7" as="geometry" />
        </mxCell>
        <mxCell id="xLAQh5WOrPh9FkQcrA83-52" value="" style="ellipse;whiteSpace=wrap;html=1;aspect=fixed;fillColor=#000000;" vertex="1" parent="xLAQh5WOrPh9FkQcrA83-51">
          <mxGeometry width="7" height="7" as="geometry" />
        </mxCell>
        <mxCell id="xLAQh5WOrPh9FkQcrA83-53" value="" style="ellipse;whiteSpace=wrap;html=1;aspect=fixed;fillColor=#000000;" vertex="1" parent="xLAQh5WOrPh9FkQcrA83-51">
          <mxGeometry x="9" width="7" height="7" as="geometry" />
        </mxCell>
        <mxCell id="xLAQh5WOrPh9FkQcrA83-54" value="" style="group" vertex="1" connectable="0" parent="xLAQh5WOrPh9FkQcrA83-1">
          <mxGeometry x="93" y="408" width="16" height="7" as="geometry" />
        </mxCell>
        <mxCell id="xLAQh5WOrPh9FkQcrA83-55" value="" style="ellipse;whiteSpace=wrap;html=1;aspect=fixed;fillColor=#000000;" vertex="1" parent="xLAQh5WOrPh9FkQcrA83-54">
          <mxGeometry width="7" height="7" as="geometry" />
        </mxCell>
        <mxCell id="xLAQh5WOrPh9FkQcrA83-56" value="" style="ellipse;whiteSpace=wrap;html=1;aspect=fixed;fillColor=#000000;" vertex="1" parent="xLAQh5WOrPh9FkQcrA83-54">
          <mxGeometry x="9" width="7" height="7" as="geometry" />
        </mxCell>
      </root>
    </mxGraphModel>
  </diagram>
  <diagram id="OOPGP_mySMEeuwglganV" name="Page-5">
    <mxGraphModel dx="946" dy="620" grid="0" gridSize="10" guides="1" tooltips="1" connect="1" arrows="1" fold="1" page="1" pageScale="1" pageWidth="1169" pageHeight="827" math="0" shadow="0">
      <root>
        <mxCell id="SqyW118YccnMJAHXjsme-0" />
        <mxCell id="SqyW118YccnMJAHXjsme-1" parent="SqyW118YccnMJAHXjsme-0" />
        <mxCell id="SqyW118YccnMJAHXjsme-4" style="edgeStyle=none;rounded=0;orthogonalLoop=1;jettySize=auto;html=1;exitX=0.5;exitY=1;exitDx=0;exitDy=0;entryX=0.5;entryY=0;entryDx=0;entryDy=0;" edge="1" parent="SqyW118YccnMJAHXjsme-1" source="SqyW118YccnMJAHXjsme-5" target="SqyW118YccnMJAHXjsme-6">
          <mxGeometry relative="1" as="geometry" />
        </mxCell>
        <mxCell id="SqyW118YccnMJAHXjsme-5" value="13" style="rounded=1;whiteSpace=wrap;html=1;" vertex="1" parent="SqyW118YccnMJAHXjsme-1">
          <mxGeometry x="128" y="230" width="42" height="30" as="geometry" />
        </mxCell>
        <mxCell id="SqyW118YccnMJAHXjsme-6" value="20" style="rounded=1;whiteSpace=wrap;html=1;" vertex="1" parent="SqyW118YccnMJAHXjsme-1">
          <mxGeometry x="177" y="300" width="42" height="30" as="geometry" />
        </mxCell>
        <mxCell id="SqyW118YccnMJAHXjsme-7" style="edgeStyle=none;rounded=0;orthogonalLoop=1;jettySize=auto;html=1;exitX=0.5;exitY=1;exitDx=0;exitDy=0;entryX=0.5;entryY=0;entryDx=0;entryDy=0;" edge="1" parent="SqyW118YccnMJAHXjsme-1" source="SqyW118YccnMJAHXjsme-9" target="SqyW118YccnMJAHXjsme-5">
          <mxGeometry relative="1" as="geometry" />
        </mxCell>
        <mxCell id="SqyW118YccnMJAHXjsme-8" style="edgeStyle=none;rounded=0;orthogonalLoop=1;jettySize=auto;html=1;exitX=0.5;exitY=1;exitDx=0;exitDy=0;entryX=0.5;entryY=0;entryDx=0;entryDy=0;" edge="1" parent="SqyW118YccnMJAHXjsme-1" source="SqyW118YccnMJAHXjsme-9" target="SqyW118YccnMJAHXjsme-13">
          <mxGeometry relative="1" as="geometry" />
        </mxCell>
        <mxCell id="SqyW118YccnMJAHXjsme-9" value="37" style="rounded=1;whiteSpace=wrap;html=1;" vertex="1" parent="SqyW118YccnMJAHXjsme-1">
          <mxGeometry x="225.5" y="158" width="42" height="30" as="geometry" />
        </mxCell>
        <mxCell id="SqyW118YccnMJAHXjsme-10" value="39" style="rounded=1;whiteSpace=wrap;html=1;" vertex="1" parent="SqyW118YccnMJAHXjsme-1">
          <mxGeometry x="274.5" y="300" width="42" height="30" as="geometry" />
        </mxCell>
        <mxCell id="SqyW118YccnMJAHXjsme-11" style="edgeStyle=none;rounded=0;orthogonalLoop=1;jettySize=auto;html=1;exitX=0.5;exitY=1;exitDx=0;exitDy=0;entryX=0.5;entryY=0;entryDx=0;entryDy=0;" edge="1" parent="SqyW118YccnMJAHXjsme-1" source="SqyW118YccnMJAHXjsme-13" target="SqyW118YccnMJAHXjsme-10">
          <mxGeometry relative="1" as="geometry" />
        </mxCell>
        <mxCell id="SqyW118YccnMJAHXjsme-12" style="edgeStyle=none;rounded=0;orthogonalLoop=1;jettySize=auto;html=1;exitX=0.5;exitY=1;exitDx=0;exitDy=0;entryX=0.5;entryY=0;entryDx=0;entryDy=0;" edge="1" parent="SqyW118YccnMJAHXjsme-1" source="SqyW118YccnMJAHXjsme-13" target="SqyW118YccnMJAHXjsme-14">
          <mxGeometry relative="1" as="geometry" />
        </mxCell>
        <mxCell id="SqyW118YccnMJAHXjsme-13" value="41" style="rounded=1;whiteSpace=wrap;html=1;" vertex="1" parent="SqyW118YccnMJAHXjsme-1">
          <mxGeometry x="323.5" y="230" width="42" height="30" as="geometry" />
        </mxCell>
        <mxCell id="SqyW118YccnMJAHXjsme-14" value="42" style="rounded=1;whiteSpace=wrap;html=1;" vertex="1" parent="SqyW118YccnMJAHXjsme-1">
          <mxGeometry x="372.5" y="300" width="42" height="30" as="geometry" />
        </mxCell>
        <mxCell id="SqyW118YccnMJAHXjsme-15" style="rounded=0;orthogonalLoop=1;jettySize=auto;html=1;exitX=0.5;exitY=1;exitDx=0;exitDy=0;entryX=0.5;entryY=0;entryDx=0;entryDy=0;" edge="1" parent="SqyW118YccnMJAHXjsme-1" source="SqyW118YccnMJAHXjsme-17" target="SqyW118YccnMJAHXjsme-9">
          <mxGeometry relative="1" as="geometry" />
        </mxCell>
        <mxCell id="SqyW118YccnMJAHXjsme-16" style="edgeStyle=none;rounded=0;orthogonalLoop=1;jettySize=auto;html=1;exitX=0.5;exitY=1;exitDx=0;exitDy=0;entryX=0.5;entryY=0;entryDx=0;entryDy=0;" edge="1" parent="SqyW118YccnMJAHXjsme-1" source="SqyW118YccnMJAHXjsme-17" target="SqyW118YccnMJAHXjsme-19">
          <mxGeometry relative="1" as="geometry" />
        </mxCell>
        <mxCell id="SqyW118YccnMJAHXjsme-17" value="43" style="rounded=1;whiteSpace=wrap;html=1;" vertex="1" parent="SqyW118YccnMJAHXjsme-1">
          <mxGeometry x="414.5" y="79" width="42" height="30" as="geometry" />
        </mxCell>
        <mxCell id="SqyW118YccnMJAHXjsme-18" style="edgeStyle=none;rounded=0;orthogonalLoop=1;jettySize=auto;html=1;exitX=0.5;exitY=1;exitDx=0;exitDy=0;entryX=0.5;entryY=0;entryDx=0;entryDy=0;" edge="1" parent="SqyW118YccnMJAHXjsme-1" source="SqyW118YccnMJAHXjsme-19" target="SqyW118YccnMJAHXjsme-23">
          <mxGeometry relative="1" as="geometry" />
        </mxCell>
        <mxCell id="SqyW118YccnMJAHXjsme-19" value="98" style="rounded=1;whiteSpace=wrap;html=1;" vertex="1" parent="SqyW118YccnMJAHXjsme-1">
          <mxGeometry x="608.5" y="158" width="42" height="30" as="geometry" />
        </mxCell>
        <mxCell id="SqyW118YccnMJAHXjsme-20" value="99" style="rounded=1;whiteSpace=wrap;html=1;" vertex="1" parent="SqyW118YccnMJAHXjsme-1">
          <mxGeometry x="658" y="300" width="42" height="30" as="geometry" />
        </mxCell>
        <mxCell id="SqyW118YccnMJAHXjsme-21" style="edgeStyle=none;rounded=0;orthogonalLoop=1;jettySize=auto;html=1;exitX=0.5;exitY=1;exitDx=0;exitDy=0;entryX=0.5;entryY=0;entryDx=0;entryDy=0;" edge="1" parent="SqyW118YccnMJAHXjsme-1" source="SqyW118YccnMJAHXjsme-23" target="SqyW118YccnMJAHXjsme-24">
          <mxGeometry relative="1" as="geometry" />
        </mxCell>
        <mxCell id="SqyW118YccnMJAHXjsme-22" style="edgeStyle=none;rounded=0;orthogonalLoop=1;jettySize=auto;html=1;exitX=0.5;exitY=1;exitDx=0;exitDy=0;entryX=0.5;entryY=0;entryDx=0;entryDy=0;" edge="1" parent="SqyW118YccnMJAHXjsme-1" source="SqyW118YccnMJAHXjsme-23" target="SqyW118YccnMJAHXjsme-20">
          <mxGeometry relative="1" as="geometry" />
        </mxCell>
        <mxCell id="SqyW118YccnMJAHXjsme-23" value="105" style="rounded=1;whiteSpace=wrap;html=1;" vertex="1" parent="SqyW118YccnMJAHXjsme-1">
          <mxGeometry x="707" y="230" width="42" height="30" as="geometry" />
        </mxCell>
        <mxCell id="SqyW118YccnMJAHXjsme-24" value="110" style="rounded=1;whiteSpace=wrap;html=1;" vertex="1" parent="SqyW118YccnMJAHXjsme-1">
          <mxGeometry x="756" y="300" width="42" height="30" as="geometry" />
        </mxCell>
        <mxCell id="SqyW118YccnMJAHXjsme-25" value="38" style="rounded=1;whiteSpace=wrap;html=1;" vertex="1" parent="SqyW118YccnMJAHXjsme-1">
          <mxGeometry x="236" y="386" width="42" height="30" as="geometry" />
        </mxCell>
        <mxCell id="SqyW118YccnMJAHXjsme-26" style="edgeStyle=none;rounded=0;orthogonalLoop=1;jettySize=auto;html=1;exitX=0.5;exitY=1;exitDx=0;exitDy=0;entryX=0.5;entryY=0;entryDx=0;entryDy=0;" edge="1" parent="SqyW118YccnMJAHXjsme-1" source="SqyW118YccnMJAHXjsme-10" target="SqyW118YccnMJAHXjsme-25">
          <mxGeometry relative="1" as="geometry">
            <mxPoint x="306" y="346" as="sourcePoint" />
          </mxGeometry>
        </mxCell>
        <mxCell id="SqyW118YccnMJAHXjsme-27" value="" style="ellipse;whiteSpace=wrap;html=1;aspect=fixed;fillColor=#000000;" vertex="1" parent="SqyW118YccnMJAHXjsme-1">
          <mxGeometry x="298" y="327" width="7" height="7" as="geometry" />
        </mxCell>
        <mxCell id="SqyW118YccnMJAHXjsme-28" value="" style="ellipse;whiteSpace=wrap;html=1;aspect=fixed;fillColor=#000000;" vertex="1" parent="SqyW118YccnMJAHXjsme-1">
          <mxGeometry x="622" y="185" width="7" height="7" as="geometry" />
        </mxCell>
        <mxCell id="SqyW118YccnMJAHXjsme-29" value="" style="ellipse;whiteSpace=wrap;html=1;aspect=fixed;fillColor=#000000;" vertex="1" parent="SqyW118YccnMJAHXjsme-1">
          <mxGeometry x="386" y="327" width="7" height="7" as="geometry" />
        </mxCell>
        <mxCell id="SqyW118YccnMJAHXjsme-30" value="" style="ellipse;whiteSpace=wrap;html=1;aspect=fixed;fillColor=#000000;" vertex="1" parent="SqyW118YccnMJAHXjsme-1">
          <mxGeometry x="395" y="327" width="7" height="7" as="geometry" />
        </mxCell>
        <mxCell id="SqyW118YccnMJAHXjsme-31" value="" style="group" vertex="1" connectable="0" parent="SqyW118YccnMJAHXjsme-1">
          <mxGeometry x="669" y="327" width="16" height="7" as="geometry" />
        </mxCell>
        <mxCell id="SqyW118YccnMJAHXjsme-32" value="" style="ellipse;whiteSpace=wrap;html=1;aspect=fixed;fillColor=#000000;" vertex="1" parent="SqyW118YccnMJAHXjsme-31">
          <mxGeometry width="7" height="7" as="geometry" />
        </mxCell>
        <mxCell id="SqyW118YccnMJAHXjsme-33" value="" style="ellipse;whiteSpace=wrap;html=1;aspect=fixed;fillColor=#000000;" vertex="1" parent="SqyW118YccnMJAHXjsme-31">
          <mxGeometry x="9" width="7" height="7" as="geometry" />
        </mxCell>
        <mxCell id="SqyW118YccnMJAHXjsme-34" value="" style="group" vertex="1" connectable="0" parent="SqyW118YccnMJAHXjsme-1">
          <mxGeometry x="769" y="327" width="16" height="7" as="geometry" />
        </mxCell>
        <mxCell id="SqyW118YccnMJAHXjsme-35" value="" style="ellipse;whiteSpace=wrap;html=1;aspect=fixed;fillColor=#000000;" vertex="1" parent="SqyW118YccnMJAHXjsme-34">
          <mxGeometry width="7" height="7" as="geometry" />
        </mxCell>
        <mxCell id="SqyW118YccnMJAHXjsme-36" value="" style="ellipse;whiteSpace=wrap;html=1;aspect=fixed;fillColor=#000000;" vertex="1" parent="SqyW118YccnMJAHXjsme-34">
          <mxGeometry x="9" width="7" height="7" as="geometry" />
        </mxCell>
        <mxCell id="SqyW118YccnMJAHXjsme-37" value="" style="group" vertex="1" connectable="0" parent="SqyW118YccnMJAHXjsme-1">
          <mxGeometry x="249" y="413" width="16" height="7" as="geometry" />
        </mxCell>
        <mxCell id="SqyW118YccnMJAHXjsme-38" value="" style="ellipse;whiteSpace=wrap;html=1;aspect=fixed;fillColor=#000000;" vertex="1" parent="SqyW118YccnMJAHXjsme-37">
          <mxGeometry width="7" height="7" as="geometry" />
        </mxCell>
        <mxCell id="SqyW118YccnMJAHXjsme-39" value="" style="ellipse;whiteSpace=wrap;html=1;aspect=fixed;fillColor=#000000;" vertex="1" parent="SqyW118YccnMJAHXjsme-37">
          <mxGeometry x="9" width="7" height="7" as="geometry" />
        </mxCell>
        <mxCell id="SqyW118YccnMJAHXjsme-40" value="" style="group" vertex="1" connectable="0" parent="SqyW118YccnMJAHXjsme-1">
          <mxGeometry x="190" y="327" width="16" height="7" as="geometry" />
        </mxCell>
        <mxCell id="SqyW118YccnMJAHXjsme-41" value="" style="ellipse;whiteSpace=wrap;html=1;aspect=fixed;fillColor=#000000;" vertex="1" parent="SqyW118YccnMJAHXjsme-40">
          <mxGeometry width="7" height="7" as="geometry" />
        </mxCell>
        <mxCell id="SqyW118YccnMJAHXjsme-42" value="" style="ellipse;whiteSpace=wrap;html=1;aspect=fixed;fillColor=#000000;" vertex="1" parent="SqyW118YccnMJAHXjsme-40">
          <mxGeometry x="9" width="7" height="7" as="geometry" />
        </mxCell>
        <mxCell id="SqyW118YccnMJAHXjsme-45" value="" style="ellipse;whiteSpace=wrap;html=1;aspect=fixed;fillColor=#000000;" vertex="1" parent="SqyW118YccnMJAHXjsme-1">
          <mxGeometry x="140" y="257" width="7" height="7" as="geometry" />
        </mxCell>
        <mxCell id="SqyW118YccnMJAHXjsme-46" style="edgeStyle=none;rounded=0;orthogonalLoop=1;jettySize=auto;html=1;exitX=0.5;exitY=1;exitDx=0;exitDy=0;entryX=0.5;entryY=0;entryDx=0;entryDy=0;" edge="1" parent="SqyW118YccnMJAHXjsme-1" source="SqyW118YccnMJAHXjsme-47" target="SqyW118YccnMJAHXjsme-48">
          <mxGeometry relative="1" as="geometry" />
        </mxCell>
        <mxCell id="SqyW118YccnMJAHXjsme-47" value="13" style="rounded=1;whiteSpace=wrap;html=1;" vertex="1" parent="SqyW118YccnMJAHXjsme-1">
          <mxGeometry x="137" y="612" width="42" height="30" as="geometry" />
        </mxCell>
        <mxCell id="SqyW118YccnMJAHXjsme-48" value="20" style="rounded=1;whiteSpace=wrap;html=1;" vertex="1" parent="SqyW118YccnMJAHXjsme-1">
          <mxGeometry x="186" y="682" width="42" height="30" as="geometry" />
        </mxCell>
        <mxCell id="SqyW118YccnMJAHXjsme-49" style="edgeStyle=none;rounded=0;orthogonalLoop=1;jettySize=auto;html=1;exitX=0.5;exitY=1;exitDx=0;exitDy=0;entryX=0.5;entryY=0;entryDx=0;entryDy=0;" edge="1" parent="SqyW118YccnMJAHXjsme-1" source="SqyW118YccnMJAHXjsme-51" target="SqyW118YccnMJAHXjsme-47">
          <mxGeometry relative="1" as="geometry" />
        </mxCell>
        <mxCell id="SqyW118YccnMJAHXjsme-50" style="edgeStyle=none;rounded=0;orthogonalLoop=1;jettySize=auto;html=1;exitX=0.5;exitY=1;exitDx=0;exitDy=0;entryX=0.5;entryY=0;entryDx=0;entryDy=0;" edge="1" parent="SqyW118YccnMJAHXjsme-1" source="SqyW118YccnMJAHXjsme-51" target="SqyW118YccnMJAHXjsme-55">
          <mxGeometry relative="1" as="geometry" />
        </mxCell>
        <mxCell id="SqyW118YccnMJAHXjsme-51" value="37" style="rounded=1;whiteSpace=wrap;html=1;" vertex="1" parent="SqyW118YccnMJAHXjsme-1">
          <mxGeometry x="234.5" y="540" width="42" height="30" as="geometry" />
        </mxCell>
        <mxCell id="SqyW118YccnMJAHXjsme-52" value="39" style="rounded=1;whiteSpace=wrap;html=1;" vertex="1" parent="SqyW118YccnMJAHXjsme-1">
          <mxGeometry x="283.5" y="682" width="42" height="30" as="geometry" />
        </mxCell>
        <mxCell id="SqyW118YccnMJAHXjsme-53" style="edgeStyle=none;rounded=0;orthogonalLoop=1;jettySize=auto;html=1;exitX=0.5;exitY=1;exitDx=0;exitDy=0;entryX=0.5;entryY=0;entryDx=0;entryDy=0;" edge="1" parent="SqyW118YccnMJAHXjsme-1" source="SqyW118YccnMJAHXjsme-55" target="SqyW118YccnMJAHXjsme-52">
          <mxGeometry relative="1" as="geometry" />
        </mxCell>
        <mxCell id="SqyW118YccnMJAHXjsme-54" style="edgeStyle=none;rounded=0;orthogonalLoop=1;jettySize=auto;html=1;exitX=0.5;exitY=1;exitDx=0;exitDy=0;entryX=0.5;entryY=0;entryDx=0;entryDy=0;" edge="1" parent="SqyW118YccnMJAHXjsme-1" source="SqyW118YccnMJAHXjsme-55" target="SqyW118YccnMJAHXjsme-56">
          <mxGeometry relative="1" as="geometry" />
        </mxCell>
        <mxCell id="SqyW118YccnMJAHXjsme-55" value="41" style="rounded=1;whiteSpace=wrap;html=1;" vertex="1" parent="SqyW118YccnMJAHXjsme-1">
          <mxGeometry x="332.5" y="612" width="42" height="30" as="geometry" />
        </mxCell>
        <mxCell id="SqyW118YccnMJAHXjsme-56" value="42" style="rounded=1;whiteSpace=wrap;html=1;" vertex="1" parent="SqyW118YccnMJAHXjsme-1">
          <mxGeometry x="381.5" y="682" width="42" height="30" as="geometry" />
        </mxCell>
        <mxCell id="SqyW118YccnMJAHXjsme-57" style="rounded=0;orthogonalLoop=1;jettySize=auto;html=1;exitX=0.5;exitY=1;exitDx=0;exitDy=0;entryX=0.5;entryY=0;entryDx=0;entryDy=0;" edge="1" parent="SqyW118YccnMJAHXjsme-1" source="SqyW118YccnMJAHXjsme-59" target="SqyW118YccnMJAHXjsme-51">
          <mxGeometry relative="1" as="geometry" />
        </mxCell>
        <mxCell id="SqyW118YccnMJAHXjsme-58" style="edgeStyle=none;rounded=0;orthogonalLoop=1;jettySize=auto;html=1;exitX=0.5;exitY=1;exitDx=0;exitDy=0;entryX=0.5;entryY=0;entryDx=0;entryDy=0;" edge="1" parent="SqyW118YccnMJAHXjsme-1" source="SqyW118YccnMJAHXjsme-59">
          <mxGeometry relative="1" as="geometry">
            <mxPoint x="638.5" y="540" as="targetPoint" />
          </mxGeometry>
        </mxCell>
        <mxCell id="SqyW118YccnMJAHXjsme-59" value="43" style="rounded=1;whiteSpace=wrap;html=1;" vertex="1" parent="SqyW118YccnMJAHXjsme-1">
          <mxGeometry x="423.5" y="461" width="42" height="30" as="geometry" />
        </mxCell>
        <mxCell id="SqyW118YccnMJAHXjsme-62" value="99" style="rounded=1;whiteSpace=wrap;html=1;" vertex="1" parent="SqyW118YccnMJAHXjsme-1">
          <mxGeometry x="569" y="610" width="42" height="30" as="geometry" />
        </mxCell>
        <mxCell id="SqyW118YccnMJAHXjsme-63" style="edgeStyle=none;rounded=0;orthogonalLoop=1;jettySize=auto;html=1;exitX=0.5;exitY=1;exitDx=0;exitDy=0;entryX=0.5;entryY=0;entryDx=0;entryDy=0;" edge="1" parent="SqyW118YccnMJAHXjsme-1" source="SqyW118YccnMJAHXjsme-65" target="SqyW118YccnMJAHXjsme-66">
          <mxGeometry relative="1" as="geometry" />
        </mxCell>
        <mxCell id="SqyW118YccnMJAHXjsme-64" style="edgeStyle=none;rounded=0;orthogonalLoop=1;jettySize=auto;html=1;exitX=0.5;exitY=1;exitDx=0;exitDy=0;entryX=0.5;entryY=0;entryDx=0;entryDy=0;" edge="1" parent="SqyW118YccnMJAHXjsme-1" source="SqyW118YccnMJAHXjsme-65" target="SqyW118YccnMJAHXjsme-62">
          <mxGeometry relative="1" as="geometry" />
        </mxCell>
        <mxCell id="SqyW118YccnMJAHXjsme-65" value="105" style="rounded=1;whiteSpace=wrap;html=1;" vertex="1" parent="SqyW118YccnMJAHXjsme-1">
          <mxGeometry x="618" y="540" width="42" height="30" as="geometry" />
        </mxCell>
        <mxCell id="SqyW118YccnMJAHXjsme-66" value="110" style="rounded=1;whiteSpace=wrap;html=1;" vertex="1" parent="SqyW118YccnMJAHXjsme-1">
          <mxGeometry x="667" y="610" width="42" height="30" as="geometry" />
        </mxCell>
        <mxCell id="SqyW118YccnMJAHXjsme-67" value="38" style="rounded=1;whiteSpace=wrap;html=1;" vertex="1" parent="SqyW118YccnMJAHXjsme-1">
          <mxGeometry x="245" y="768" width="42" height="30" as="geometry" />
        </mxCell>
        <mxCell id="SqyW118YccnMJAHXjsme-68" style="edgeStyle=none;rounded=0;orthogonalLoop=1;jettySize=auto;html=1;exitX=0.5;exitY=1;exitDx=0;exitDy=0;entryX=0.5;entryY=0;entryDx=0;entryDy=0;" edge="1" parent="SqyW118YccnMJAHXjsme-1" source="SqyW118YccnMJAHXjsme-52" target="SqyW118YccnMJAHXjsme-67">
          <mxGeometry relative="1" as="geometry">
            <mxPoint x="315" y="728" as="sourcePoint" />
          </mxGeometry>
        </mxCell>
        <mxCell id="SqyW118YccnMJAHXjsme-69" value="" style="ellipse;whiteSpace=wrap;html=1;aspect=fixed;fillColor=#000000;" vertex="1" parent="SqyW118YccnMJAHXjsme-1">
          <mxGeometry x="307" y="709" width="7" height="7" as="geometry" />
        </mxCell>
        <mxCell id="SqyW118YccnMJAHXjsme-71" value="" style="ellipse;whiteSpace=wrap;html=1;aspect=fixed;fillColor=#000000;" vertex="1" parent="SqyW118YccnMJAHXjsme-1">
          <mxGeometry x="395" y="709" width="7" height="7" as="geometry" />
        </mxCell>
        <mxCell id="SqyW118YccnMJAHXjsme-72" value="" style="ellipse;whiteSpace=wrap;html=1;aspect=fixed;fillColor=#000000;" vertex="1" parent="SqyW118YccnMJAHXjsme-1">
          <mxGeometry x="404" y="709" width="7" height="7" as="geometry" />
        </mxCell>
        <mxCell id="SqyW118YccnMJAHXjsme-73" value="" style="group" vertex="1" connectable="0" parent="SqyW118YccnMJAHXjsme-1">
          <mxGeometry x="580" y="637" width="16" height="7" as="geometry" />
        </mxCell>
        <mxCell id="SqyW118YccnMJAHXjsme-74" value="" style="ellipse;whiteSpace=wrap;html=1;aspect=fixed;fillColor=#000000;" vertex="1" parent="SqyW118YccnMJAHXjsme-73">
          <mxGeometry width="7" height="7" as="geometry" />
        </mxCell>
        <mxCell id="SqyW118YccnMJAHXjsme-75" value="" style="ellipse;whiteSpace=wrap;html=1;aspect=fixed;fillColor=#000000;" vertex="1" parent="SqyW118YccnMJAHXjsme-73">
          <mxGeometry x="9" width="7" height="7" as="geometry" />
        </mxCell>
        <mxCell id="SqyW118YccnMJAHXjsme-76" value="" style="group" vertex="1" connectable="0" parent="SqyW118YccnMJAHXjsme-1">
          <mxGeometry x="680" y="637" width="16" height="7" as="geometry" />
        </mxCell>
        <mxCell id="SqyW118YccnMJAHXjsme-77" value="" style="ellipse;whiteSpace=wrap;html=1;aspect=fixed;fillColor=#000000;" vertex="1" parent="SqyW118YccnMJAHXjsme-76">
          <mxGeometry width="7" height="7" as="geometry" />
        </mxCell>
        <mxCell id="SqyW118YccnMJAHXjsme-78" value="" style="ellipse;whiteSpace=wrap;html=1;aspect=fixed;fillColor=#000000;" vertex="1" parent="SqyW118YccnMJAHXjsme-76">
          <mxGeometry x="9" width="7" height="7" as="geometry" />
        </mxCell>
        <mxCell id="SqyW118YccnMJAHXjsme-79" value="" style="group" vertex="1" connectable="0" parent="SqyW118YccnMJAHXjsme-1">
          <mxGeometry x="258" y="795" width="16" height="7" as="geometry" />
        </mxCell>
        <mxCell id="SqyW118YccnMJAHXjsme-80" value="" style="ellipse;whiteSpace=wrap;html=1;aspect=fixed;fillColor=#000000;" vertex="1" parent="SqyW118YccnMJAHXjsme-79">
          <mxGeometry width="7" height="7" as="geometry" />
        </mxCell>
        <mxCell id="SqyW118YccnMJAHXjsme-81" value="" style="ellipse;whiteSpace=wrap;html=1;aspect=fixed;fillColor=#000000;" vertex="1" parent="SqyW118YccnMJAHXjsme-79">
          <mxGeometry x="9" width="7" height="7" as="geometry" />
        </mxCell>
        <mxCell id="SqyW118YccnMJAHXjsme-82" value="" style="group" vertex="1" connectable="0" parent="SqyW118YccnMJAHXjsme-1">
          <mxGeometry x="199" y="709" width="16" height="7" as="geometry" />
        </mxCell>
        <mxCell id="SqyW118YccnMJAHXjsme-83" value="" style="ellipse;whiteSpace=wrap;html=1;aspect=fixed;fillColor=#000000;" vertex="1" parent="SqyW118YccnMJAHXjsme-82">
          <mxGeometry width="7" height="7" as="geometry" />
        </mxCell>
        <mxCell id="SqyW118YccnMJAHXjsme-84" value="" style="ellipse;whiteSpace=wrap;html=1;aspect=fixed;fillColor=#000000;" vertex="1" parent="SqyW118YccnMJAHXjsme-82">
          <mxGeometry x="9" width="7" height="7" as="geometry" />
        </mxCell>
        <mxCell id="SqyW118YccnMJAHXjsme-85" value="" style="ellipse;whiteSpace=wrap;html=1;aspect=fixed;fillColor=#000000;" vertex="1" parent="SqyW118YccnMJAHXjsme-1">
          <mxGeometry x="149" y="639" width="7" height="7" as="geometry" />
        </mxCell>
      </root>
    </mxGraphModel>
  </diagram>
  <diagram id="teeDpxRfSwmifpDS072U" name="Page-6">
    <mxGraphModel dx="946" dy="620" grid="0" gridSize="10" guides="1" tooltips="1" connect="1" arrows="1" fold="1" page="1" pageScale="1" pageWidth="1169" pageHeight="827" math="0" shadow="0">
      <root>
        <mxCell id="EZ5Sv64LvBNfB-s5Ylsj-0" />
        <mxCell id="EZ5Sv64LvBNfB-s5Ylsj-1" parent="EZ5Sv64LvBNfB-s5Ylsj-0" />
        <mxCell id="EZ5Sv64LvBNfB-s5Ylsj-2" style="edgeStyle=none;rounded=0;orthogonalLoop=1;jettySize=auto;html=1;exitX=0.5;exitY=1;exitDx=0;exitDy=0;entryX=0.5;entryY=0;entryDx=0;entryDy=0;" parent="EZ5Sv64LvBNfB-s5Ylsj-1" source="EZ5Sv64LvBNfB-s5Ylsj-3" target="EZ5Sv64LvBNfB-s5Ylsj-4" edge="1">
          <mxGeometry relative="1" as="geometry" />
        </mxCell>
        <mxCell id="EZ5Sv64LvBNfB-s5Ylsj-3" value="13" style="rounded=1;whiteSpace=wrap;html=1;" parent="EZ5Sv64LvBNfB-s5Ylsj-1" vertex="1">
          <mxGeometry x="133" y="224" width="42" height="30" as="geometry" />
        </mxCell>
        <mxCell id="EZ5Sv64LvBNfB-s5Ylsj-4" value="20" style="rounded=1;whiteSpace=wrap;html=1;" parent="EZ5Sv64LvBNfB-s5Ylsj-1" vertex="1">
          <mxGeometry x="182" y="294" width="42" height="30" as="geometry" />
        </mxCell>
        <mxCell id="EZ5Sv64LvBNfB-s5Ylsj-5" style="edgeStyle=none;rounded=0;orthogonalLoop=1;jettySize=auto;html=1;exitX=0.5;exitY=1;exitDx=0;exitDy=0;entryX=0.5;entryY=0;entryDx=0;entryDy=0;" parent="EZ5Sv64LvBNfB-s5Ylsj-1" target="EZ5Sv64LvBNfB-s5Ylsj-3" edge="1">
          <mxGeometry relative="1" as="geometry">
            <mxPoint x="251.5" y="182" as="sourcePoint" />
          </mxGeometry>
        </mxCell>
        <mxCell id="EZ5Sv64LvBNfB-s5Ylsj-6" style="edgeStyle=none;rounded=0;orthogonalLoop=1;jettySize=auto;html=1;exitX=0.5;exitY=1;exitDx=0;exitDy=0;entryX=0.5;entryY=0;entryDx=0;entryDy=0;" parent="EZ5Sv64LvBNfB-s5Ylsj-1" target="EZ5Sv64LvBNfB-s5Ylsj-11" edge="1">
          <mxGeometry relative="1" as="geometry">
            <mxPoint x="251.5" y="182" as="sourcePoint" />
          </mxGeometry>
        </mxCell>
        <mxCell id="EZ5Sv64LvBNfB-s5Ylsj-8" value="39" style="rounded=1;whiteSpace=wrap;html=1;" parent="EZ5Sv64LvBNfB-s5Ylsj-1" vertex="1">
          <mxGeometry x="279.5" y="294" width="42" height="30" as="geometry" />
        </mxCell>
        <mxCell id="EZ5Sv64LvBNfB-s5Ylsj-9" style="edgeStyle=none;rounded=0;orthogonalLoop=1;jettySize=auto;html=1;exitX=0.5;exitY=1;exitDx=0;exitDy=0;entryX=0.5;entryY=0;entryDx=0;entryDy=0;" parent="EZ5Sv64LvBNfB-s5Ylsj-1" source="EZ5Sv64LvBNfB-s5Ylsj-11" target="EZ5Sv64LvBNfB-s5Ylsj-8" edge="1">
          <mxGeometry relative="1" as="geometry" />
        </mxCell>
        <mxCell id="EZ5Sv64LvBNfB-s5Ylsj-10" style="edgeStyle=none;rounded=0;orthogonalLoop=1;jettySize=auto;html=1;exitX=0.5;exitY=1;exitDx=0;exitDy=0;entryX=0.5;entryY=0;entryDx=0;entryDy=0;" parent="EZ5Sv64LvBNfB-s5Ylsj-1" source="EZ5Sv64LvBNfB-s5Ylsj-11" target="EZ5Sv64LvBNfB-s5Ylsj-12" edge="1">
          <mxGeometry relative="1" as="geometry" />
        </mxCell>
        <mxCell id="EZ5Sv64LvBNfB-s5Ylsj-11" value="41" style="rounded=1;whiteSpace=wrap;html=1;" parent="EZ5Sv64LvBNfB-s5Ylsj-1" vertex="1">
          <mxGeometry x="328.5" y="224" width="42" height="30" as="geometry" />
        </mxCell>
        <mxCell id="EZ5Sv64LvBNfB-s5Ylsj-12" value="42" style="rounded=1;whiteSpace=wrap;html=1;" parent="EZ5Sv64LvBNfB-s5Ylsj-1" vertex="1">
          <mxGeometry x="377.5" y="294" width="42" height="30" as="geometry" />
        </mxCell>
        <mxCell id="EZ5Sv64LvBNfB-s5Ylsj-13" style="rounded=0;orthogonalLoop=1;jettySize=auto;html=1;exitX=0.5;exitY=1;exitDx=0;exitDy=0;entryX=0.5;entryY=0;entryDx=0;entryDy=0;" parent="EZ5Sv64LvBNfB-s5Ylsj-1" source="EZ5Sv64LvBNfB-s5Ylsj-15" edge="1">
          <mxGeometry relative="1" as="geometry">
            <mxPoint x="251.5" y="152" as="targetPoint" />
          </mxGeometry>
        </mxCell>
        <mxCell id="EZ5Sv64LvBNfB-s5Ylsj-14" style="edgeStyle=none;rounded=0;orthogonalLoop=1;jettySize=auto;html=1;exitX=0.5;exitY=1;exitDx=0;exitDy=0;entryX=0.5;entryY=0;entryDx=0;entryDy=0;" parent="EZ5Sv64LvBNfB-s5Ylsj-1" source="EZ5Sv64LvBNfB-s5Ylsj-15" edge="1">
          <mxGeometry relative="1" as="geometry">
            <mxPoint x="634.5" y="152" as="targetPoint" />
          </mxGeometry>
        </mxCell>
        <mxCell id="EZ5Sv64LvBNfB-s5Ylsj-15" value="43" style="rounded=1;whiteSpace=wrap;html=1;" parent="EZ5Sv64LvBNfB-s5Ylsj-1" vertex="1">
          <mxGeometry x="419.5" y="73" width="42" height="30" as="geometry" />
        </mxCell>
        <mxCell id="EZ5Sv64LvBNfB-s5Ylsj-16" value="99" style="rounded=1;whiteSpace=wrap;html=1;" parent="EZ5Sv64LvBNfB-s5Ylsj-1" vertex="1">
          <mxGeometry x="565" y="222" width="42" height="30" as="geometry" />
        </mxCell>
        <mxCell id="EZ5Sv64LvBNfB-s5Ylsj-17" style="edgeStyle=none;rounded=0;orthogonalLoop=1;jettySize=auto;html=1;exitX=0.5;exitY=1;exitDx=0;exitDy=0;entryX=0.5;entryY=0;entryDx=0;entryDy=0;" parent="EZ5Sv64LvBNfB-s5Ylsj-1" source="EZ5Sv64LvBNfB-s5Ylsj-19" target="EZ5Sv64LvBNfB-s5Ylsj-20" edge="1">
          <mxGeometry relative="1" as="geometry" />
        </mxCell>
        <mxCell id="EZ5Sv64LvBNfB-s5Ylsj-18" style="edgeStyle=none;rounded=0;orthogonalLoop=1;jettySize=auto;html=1;exitX=0.5;exitY=1;exitDx=0;exitDy=0;entryX=0.5;entryY=0;entryDx=0;entryDy=0;" parent="EZ5Sv64LvBNfB-s5Ylsj-1" source="EZ5Sv64LvBNfB-s5Ylsj-19" target="EZ5Sv64LvBNfB-s5Ylsj-16" edge="1">
          <mxGeometry relative="1" as="geometry" />
        </mxCell>
        <mxCell id="EZ5Sv64LvBNfB-s5Ylsj-19" value="105" style="rounded=1;whiteSpace=wrap;html=1;" parent="EZ5Sv64LvBNfB-s5Ylsj-1" vertex="1">
          <mxGeometry x="614" y="152" width="42" height="30" as="geometry" />
        </mxCell>
        <mxCell id="EZ5Sv64LvBNfB-s5Ylsj-20" value="110" style="rounded=1;whiteSpace=wrap;html=1;" parent="EZ5Sv64LvBNfB-s5Ylsj-1" vertex="1">
          <mxGeometry x="663" y="222" width="42" height="30" as="geometry" />
        </mxCell>
        <mxCell id="EZ5Sv64LvBNfB-s5Ylsj-23" value="" style="ellipse;whiteSpace=wrap;html=1;aspect=fixed;fillColor=#000000;" parent="EZ5Sv64LvBNfB-s5Ylsj-1" vertex="1">
          <mxGeometry x="303" y="321" width="7" height="7" as="geometry" />
        </mxCell>
        <mxCell id="EZ5Sv64LvBNfB-s5Ylsj-24" value="" style="ellipse;whiteSpace=wrap;html=1;aspect=fixed;fillColor=#000000;" parent="EZ5Sv64LvBNfB-s5Ylsj-1" vertex="1">
          <mxGeometry x="391" y="321" width="7" height="7" as="geometry" />
        </mxCell>
        <mxCell id="EZ5Sv64LvBNfB-s5Ylsj-25" value="" style="ellipse;whiteSpace=wrap;html=1;aspect=fixed;fillColor=#000000;" parent="EZ5Sv64LvBNfB-s5Ylsj-1" vertex="1">
          <mxGeometry x="400" y="321" width="7" height="7" as="geometry" />
        </mxCell>
        <mxCell id="EZ5Sv64LvBNfB-s5Ylsj-26" value="" style="group" parent="EZ5Sv64LvBNfB-s5Ylsj-1" vertex="1" connectable="0">
          <mxGeometry x="576" y="249" width="16" height="7" as="geometry" />
        </mxCell>
        <mxCell id="EZ5Sv64LvBNfB-s5Ylsj-27" value="" style="ellipse;whiteSpace=wrap;html=1;aspect=fixed;fillColor=#000000;" parent="EZ5Sv64LvBNfB-s5Ylsj-26" vertex="1">
          <mxGeometry width="7" height="7" as="geometry" />
        </mxCell>
        <mxCell id="EZ5Sv64LvBNfB-s5Ylsj-28" value="" style="ellipse;whiteSpace=wrap;html=1;aspect=fixed;fillColor=#000000;" parent="EZ5Sv64LvBNfB-s5Ylsj-26" vertex="1">
          <mxGeometry x="9" width="7" height="7" as="geometry" />
        </mxCell>
        <mxCell id="EZ5Sv64LvBNfB-s5Ylsj-29" value="" style="group" parent="EZ5Sv64LvBNfB-s5Ylsj-1" vertex="1" connectable="0">
          <mxGeometry x="676" y="249" width="16" height="7" as="geometry" />
        </mxCell>
        <mxCell id="EZ5Sv64LvBNfB-s5Ylsj-30" value="" style="ellipse;whiteSpace=wrap;html=1;aspect=fixed;fillColor=#000000;" parent="EZ5Sv64LvBNfB-s5Ylsj-29" vertex="1">
          <mxGeometry width="7" height="7" as="geometry" />
        </mxCell>
        <mxCell id="EZ5Sv64LvBNfB-s5Ylsj-31" value="" style="ellipse;whiteSpace=wrap;html=1;aspect=fixed;fillColor=#000000;" parent="EZ5Sv64LvBNfB-s5Ylsj-29" vertex="1">
          <mxGeometry x="9" width="7" height="7" as="geometry" />
        </mxCell>
        <mxCell id="EZ5Sv64LvBNfB-s5Ylsj-32" value="" style="group" parent="EZ5Sv64LvBNfB-s5Ylsj-1" vertex="1" connectable="0">
          <mxGeometry x="292" y="321" width="16" height="7" as="geometry" />
        </mxCell>
        <mxCell id="EZ5Sv64LvBNfB-s5Ylsj-33" value="" style="ellipse;whiteSpace=wrap;html=1;aspect=fixed;fillColor=#000000;" parent="EZ5Sv64LvBNfB-s5Ylsj-32" vertex="1">
          <mxGeometry width="7" height="7" as="geometry" />
        </mxCell>
        <mxCell id="EZ5Sv64LvBNfB-s5Ylsj-35" value="" style="group" parent="EZ5Sv64LvBNfB-s5Ylsj-1" vertex="1" connectable="0">
          <mxGeometry x="195" y="321" width="16" height="7" as="geometry" />
        </mxCell>
        <mxCell id="EZ5Sv64LvBNfB-s5Ylsj-36" value="" style="ellipse;whiteSpace=wrap;html=1;aspect=fixed;fillColor=#000000;" parent="EZ5Sv64LvBNfB-s5Ylsj-35" vertex="1">
          <mxGeometry width="7" height="7" as="geometry" />
        </mxCell>
        <mxCell id="EZ5Sv64LvBNfB-s5Ylsj-37" value="" style="ellipse;whiteSpace=wrap;html=1;aspect=fixed;fillColor=#000000;" parent="EZ5Sv64LvBNfB-s5Ylsj-35" vertex="1">
          <mxGeometry x="9" width="7" height="7" as="geometry" />
        </mxCell>
        <mxCell id="EZ5Sv64LvBNfB-s5Ylsj-38" value="" style="ellipse;whiteSpace=wrap;html=1;aspect=fixed;fillColor=#000000;" parent="EZ5Sv64LvBNfB-s5Ylsj-1" vertex="1">
          <mxGeometry x="145" y="251" width="7" height="7" as="geometry" />
        </mxCell>
        <mxCell id="EZ5Sv64LvBNfB-s5Ylsj-39" value="38" style="rounded=1;whiteSpace=wrap;html=1;" parent="EZ5Sv64LvBNfB-s5Ylsj-1" vertex="1">
          <mxGeometry x="231" y="152" width="42" height="30" as="geometry" />
        </mxCell>
        <mxCell id="WUQR9rtdHyhjAwEd0SRd-2" value="20" style="rounded=1;whiteSpace=wrap;html=1;" parent="EZ5Sv64LvBNfB-s5Ylsj-1" vertex="1">
          <mxGeometry x="153" y="595" width="42" height="30" as="geometry" />
        </mxCell>
        <mxCell id="WUQR9rtdHyhjAwEd0SRd-3" style="edgeStyle=none;rounded=0;orthogonalLoop=1;jettySize=auto;html=1;exitX=0.5;exitY=1;exitDx=0;exitDy=0;entryX=0.5;entryY=0;entryDx=0;entryDy=0;" parent="EZ5Sv64LvBNfB-s5Ylsj-1" edge="1">
          <mxGeometry relative="1" as="geometry">
            <mxPoint x="267.5" y="553" as="sourcePoint" />
            <mxPoint x="170" y="595" as="targetPoint" />
          </mxGeometry>
        </mxCell>
        <mxCell id="WUQR9rtdHyhjAwEd0SRd-4" style="edgeStyle=none;rounded=0;orthogonalLoop=1;jettySize=auto;html=1;exitX=0.5;exitY=1;exitDx=0;exitDy=0;entryX=0.5;entryY=0;entryDx=0;entryDy=0;" parent="EZ5Sv64LvBNfB-s5Ylsj-1" target="WUQR9rtdHyhjAwEd0SRd-9" edge="1">
          <mxGeometry relative="1" as="geometry">
            <mxPoint x="267.5" y="553" as="sourcePoint" />
          </mxGeometry>
        </mxCell>
        <mxCell id="WUQR9rtdHyhjAwEd0SRd-6" value="39" style="rounded=1;whiteSpace=wrap;html=1;" parent="EZ5Sv64LvBNfB-s5Ylsj-1" vertex="1">
          <mxGeometry x="295.5" y="665" width="42" height="30" as="geometry" />
        </mxCell>
        <mxCell id="WUQR9rtdHyhjAwEd0SRd-7" style="edgeStyle=none;rounded=0;orthogonalLoop=1;jettySize=auto;html=1;exitX=0.5;exitY=1;exitDx=0;exitDy=0;entryX=0.5;entryY=0;entryDx=0;entryDy=0;" parent="EZ5Sv64LvBNfB-s5Ylsj-1" source="WUQR9rtdHyhjAwEd0SRd-9" target="WUQR9rtdHyhjAwEd0SRd-6" edge="1">
          <mxGeometry relative="1" as="geometry" />
        </mxCell>
        <mxCell id="WUQR9rtdHyhjAwEd0SRd-8" style="edgeStyle=none;rounded=0;orthogonalLoop=1;jettySize=auto;html=1;exitX=0.5;exitY=1;exitDx=0;exitDy=0;entryX=0.5;entryY=0;entryDx=0;entryDy=0;" parent="EZ5Sv64LvBNfB-s5Ylsj-1" source="WUQR9rtdHyhjAwEd0SRd-9" target="WUQR9rtdHyhjAwEd0SRd-10" edge="1">
          <mxGeometry relative="1" as="geometry" />
        </mxCell>
        <mxCell id="WUQR9rtdHyhjAwEd0SRd-9" value="41" style="rounded=1;whiteSpace=wrap;html=1;" parent="EZ5Sv64LvBNfB-s5Ylsj-1" vertex="1">
          <mxGeometry x="344.5" y="595" width="42" height="30" as="geometry" />
        </mxCell>
        <mxCell id="WUQR9rtdHyhjAwEd0SRd-10" value="42" style="rounded=1;whiteSpace=wrap;html=1;" parent="EZ5Sv64LvBNfB-s5Ylsj-1" vertex="1">
          <mxGeometry x="393.5" y="665" width="42" height="30" as="geometry" />
        </mxCell>
        <mxCell id="WUQR9rtdHyhjAwEd0SRd-11" style="rounded=0;orthogonalLoop=1;jettySize=auto;html=1;exitX=0.5;exitY=1;exitDx=0;exitDy=0;entryX=0.5;entryY=0;entryDx=0;entryDy=0;" parent="EZ5Sv64LvBNfB-s5Ylsj-1" edge="1">
          <mxGeometry relative="1" as="geometry">
            <mxPoint x="456.5" y="474" as="sourcePoint" />
            <mxPoint x="267.5" y="523" as="targetPoint" />
          </mxGeometry>
        </mxCell>
        <mxCell id="WUQR9rtdHyhjAwEd0SRd-12" style="edgeStyle=none;rounded=0;orthogonalLoop=1;jettySize=auto;html=1;exitX=0.5;exitY=1;exitDx=0;exitDy=0;entryX=0.5;entryY=0;entryDx=0;entryDy=0;" parent="EZ5Sv64LvBNfB-s5Ylsj-1" edge="1">
          <mxGeometry relative="1" as="geometry">
            <mxPoint x="456.5" y="474" as="sourcePoint" />
            <mxPoint x="650.5" y="523" as="targetPoint" />
          </mxGeometry>
        </mxCell>
        <mxCell id="WUQR9rtdHyhjAwEd0SRd-16" value="99" style="rounded=1;whiteSpace=wrap;html=1;" parent="EZ5Sv64LvBNfB-s5Ylsj-1" vertex="1">
          <mxGeometry x="435.5" y="443" width="42" height="30" as="geometry" />
        </mxCell>
        <mxCell id="WUQR9rtdHyhjAwEd0SRd-17" style="edgeStyle=none;rounded=0;orthogonalLoop=1;jettySize=auto;html=1;exitX=0.5;exitY=1;exitDx=0;exitDy=0;entryX=0.5;entryY=0;entryDx=0;entryDy=0;" parent="EZ5Sv64LvBNfB-s5Ylsj-1" source="WUQR9rtdHyhjAwEd0SRd-19" target="WUQR9rtdHyhjAwEd0SRd-20" edge="1">
          <mxGeometry relative="1" as="geometry" />
        </mxCell>
        <mxCell id="WUQR9rtdHyhjAwEd0SRd-19" value="105" style="rounded=1;whiteSpace=wrap;html=1;" parent="EZ5Sv64LvBNfB-s5Ylsj-1" vertex="1">
          <mxGeometry x="625" y="523" width="42" height="30" as="geometry" />
        </mxCell>
        <mxCell id="WUQR9rtdHyhjAwEd0SRd-20" value="110" style="rounded=1;whiteSpace=wrap;html=1;" parent="EZ5Sv64LvBNfB-s5Ylsj-1" vertex="1">
          <mxGeometry x="674" y="593" width="42" height="30" as="geometry" />
        </mxCell>
        <mxCell id="WUQR9rtdHyhjAwEd0SRd-21" value="38" style="rounded=1;whiteSpace=wrap;html=1;" parent="EZ5Sv64LvBNfB-s5Ylsj-1" vertex="1">
          <mxGeometry x="244" y="523" width="42" height="30" as="geometry" />
        </mxCell>
        <mxCell id="WUQR9rtdHyhjAwEd0SRd-25" value="" style="ellipse;whiteSpace=wrap;html=1;aspect=fixed;fillColor=#000000;" parent="EZ5Sv64LvBNfB-s5Ylsj-1" vertex="1">
          <mxGeometry x="407" y="692" width="7" height="7" as="geometry" />
        </mxCell>
        <mxCell id="WUQR9rtdHyhjAwEd0SRd-26" value="" style="ellipse;whiteSpace=wrap;html=1;aspect=fixed;fillColor=#000000;" parent="EZ5Sv64LvBNfB-s5Ylsj-1" vertex="1">
          <mxGeometry x="416" y="692" width="7" height="7" as="geometry" />
        </mxCell>
        <mxCell id="WUQR9rtdHyhjAwEd0SRd-27" value="" style="group" parent="EZ5Sv64LvBNfB-s5Ylsj-1" vertex="1" connectable="0">
          <mxGeometry x="626" y="550" width="16" height="7" as="geometry" />
        </mxCell>
        <mxCell id="WUQR9rtdHyhjAwEd0SRd-29" value="" style="ellipse;whiteSpace=wrap;html=1;aspect=fixed;fillColor=#000000;" parent="WUQR9rtdHyhjAwEd0SRd-27" vertex="1">
          <mxGeometry x="9" width="7" height="7" as="geometry" />
        </mxCell>
        <mxCell id="WUQR9rtdHyhjAwEd0SRd-30" value="" style="group" parent="EZ5Sv64LvBNfB-s5Ylsj-1" vertex="1" connectable="0">
          <mxGeometry x="687" y="620" width="16" height="7" as="geometry" />
        </mxCell>
        <mxCell id="WUQR9rtdHyhjAwEd0SRd-31" value="" style="ellipse;whiteSpace=wrap;html=1;aspect=fixed;fillColor=#000000;" parent="WUQR9rtdHyhjAwEd0SRd-30" vertex="1">
          <mxGeometry width="7" height="7" as="geometry" />
        </mxCell>
        <mxCell id="WUQR9rtdHyhjAwEd0SRd-32" value="" style="ellipse;whiteSpace=wrap;html=1;aspect=fixed;fillColor=#000000;" parent="WUQR9rtdHyhjAwEd0SRd-30" vertex="1">
          <mxGeometry x="9" width="7" height="7" as="geometry" />
        </mxCell>
        <mxCell id="WUQR9rtdHyhjAwEd0SRd-33" value="" style="group" parent="EZ5Sv64LvBNfB-s5Ylsj-1" vertex="1" connectable="0">
          <mxGeometry x="306.5" y="692" width="16" height="7" as="geometry" />
        </mxCell>
        <mxCell id="WUQR9rtdHyhjAwEd0SRd-34" value="" style="ellipse;whiteSpace=wrap;html=1;aspect=fixed;fillColor=#000000;" parent="WUQR9rtdHyhjAwEd0SRd-33" vertex="1">
          <mxGeometry width="7" height="7" as="geometry" />
        </mxCell>
        <mxCell id="WUQR9rtdHyhjAwEd0SRd-35" value="" style="ellipse;whiteSpace=wrap;html=1;aspect=fixed;fillColor=#000000;" parent="WUQR9rtdHyhjAwEd0SRd-33" vertex="1">
          <mxGeometry x="9" width="7" height="7" as="geometry" />
        </mxCell>
        <mxCell id="WUQR9rtdHyhjAwEd0SRd-36" value="" style="group" parent="EZ5Sv64LvBNfB-s5Ylsj-1" vertex="1" connectable="0">
          <mxGeometry x="166" y="622" width="16" height="7" as="geometry" />
        </mxCell>
        <mxCell id="WUQR9rtdHyhjAwEd0SRd-37" value="" style="ellipse;whiteSpace=wrap;html=1;aspect=fixed;fillColor=#000000;" parent="WUQR9rtdHyhjAwEd0SRd-36" vertex="1">
          <mxGeometry width="7" height="7" as="geometry" />
        </mxCell>
        <mxCell id="WUQR9rtdHyhjAwEd0SRd-38" value="" style="ellipse;whiteSpace=wrap;html=1;aspect=fixed;fillColor=#000000;" parent="WUQR9rtdHyhjAwEd0SRd-36" vertex="1">
          <mxGeometry x="9" width="7" height="7" as="geometry" />
        </mxCell>
      </root>
    </mxGraphModel>
  </diagram>
  <diagram id="DUevSdg747gQJ8yNk11B" name="Page-7">
    <mxGraphModel dx="1113" dy="729" grid="0" gridSize="10" guides="1" tooltips="1" connect="1" arrows="1" fold="1" page="1" pageScale="1" pageWidth="1169" pageHeight="827" math="0" shadow="0">
      <root>
        <mxCell id="iNijIIWXCY_BzJKXO6Sv-0" />
        <mxCell id="iNijIIWXCY_BzJKXO6Sv-1" parent="iNijIIWXCY_BzJKXO6Sv-0" />
        <mxCell id="iNijIIWXCY_BzJKXO6Sv-2" value="a" style="rounded=1;whiteSpace=wrap;html=1;" vertex="1" parent="iNijIIWXCY_BzJKXO6Sv-1">
          <mxGeometry x="128" y="470" width="42" height="30" as="geometry" />
        </mxCell>
        <mxCell id="iNijIIWXCY_BzJKXO6Sv-3" style="edgeStyle=orthogonalEdgeStyle;rounded=0;orthogonalLoop=1;jettySize=auto;html=1;exitX=0.5;exitY=1;exitDx=0;exitDy=0;" edge="1" parent="iNijIIWXCY_BzJKXO6Sv-1" source="iNijIIWXCY_BzJKXO6Sv-5" target="iNijIIWXCY_BzJKXO6Sv-2">
          <mxGeometry relative="1" as="geometry" />
        </mxCell>
        <mxCell id="iNijIIWXCY_BzJKXO6Sv-4" style="edgeStyle=orthogonalEdgeStyle;rounded=0;orthogonalLoop=1;jettySize=auto;html=1;exitX=0.5;exitY=1;exitDx=0;exitDy=0;" edge="1" parent="iNijIIWXCY_BzJKXO6Sv-1" source="iNijIIWXCY_BzJKXO6Sv-5" target="iNijIIWXCY_BzJKXO6Sv-6">
          <mxGeometry relative="1" as="geometry" />
        </mxCell>
        <mxCell id="iNijIIWXCY_BzJKXO6Sv-5" value="2" style="rounded=1;whiteSpace=wrap;html=1;" vertex="1" parent="iNijIIWXCY_BzJKXO6Sv-1">
          <mxGeometry x="177" y="400" width="42" height="30" as="geometry" />
        </mxCell>
        <mxCell id="iNijIIWXCY_BzJKXO6Sv-6" value="c" style="rounded=1;whiteSpace=wrap;html=1;" vertex="1" parent="iNijIIWXCY_BzJKXO6Sv-1">
          <mxGeometry x="226" y="470" width="42" height="30" as="geometry" />
        </mxCell>
        <mxCell id="iNijIIWXCY_BzJKXO6Sv-7" value="f" style="rounded=1;whiteSpace=wrap;html=1;" vertex="1" parent="iNijIIWXCY_BzJKXO6Sv-1">
          <mxGeometry x="333" y="470" width="42" height="30" as="geometry" />
        </mxCell>
        <mxCell id="iNijIIWXCY_BzJKXO6Sv-8" style="edgeStyle=orthogonalEdgeStyle;rounded=0;orthogonalLoop=1;jettySize=auto;html=1;exitX=0.5;exitY=1;exitDx=0;exitDy=0;" edge="1" parent="iNijIIWXCY_BzJKXO6Sv-1" source="iNijIIWXCY_BzJKXO6Sv-10" target="iNijIIWXCY_BzJKXO6Sv-7">
          <mxGeometry relative="1" as="geometry" />
        </mxCell>
        <mxCell id="iNijIIWXCY_BzJKXO6Sv-9" style="edgeStyle=orthogonalEdgeStyle;rounded=0;orthogonalLoop=1;jettySize=auto;html=1;exitX=0.5;exitY=1;exitDx=0;exitDy=0;" edge="1" parent="iNijIIWXCY_BzJKXO6Sv-1" source="iNijIIWXCY_BzJKXO6Sv-10" target="iNijIIWXCY_BzJKXO6Sv-11">
          <mxGeometry relative="1" as="geometry" />
        </mxCell>
        <mxCell id="iNijIIWXCY_BzJKXO6Sv-10" value="2" style="rounded=1;whiteSpace=wrap;html=1;" vertex="1" parent="iNijIIWXCY_BzJKXO6Sv-1">
          <mxGeometry x="382" y="400" width="42" height="30" as="geometry" />
        </mxCell>
        <mxCell id="iNijIIWXCY_BzJKXO6Sv-11" value="k" style="rounded=1;whiteSpace=wrap;html=1;" vertex="1" parent="iNijIIWXCY_BzJKXO6Sv-1">
          <mxGeometry x="431" y="470" width="42" height="30" as="geometry" />
        </mxCell>
        <mxCell id="iNijIIWXCY_BzJKXO6Sv-12" value="l" style="rounded=1;whiteSpace=wrap;html=1;" vertex="1" parent="iNijIIWXCY_BzJKXO6Sv-1">
          <mxGeometry x="547" y="470" width="42" height="30" as="geometry" />
        </mxCell>
        <mxCell id="iNijIIWXCY_BzJKXO6Sv-13" style="edgeStyle=orthogonalEdgeStyle;rounded=0;orthogonalLoop=1;jettySize=auto;html=1;exitX=0.5;exitY=1;exitDx=0;exitDy=0;" edge="1" parent="iNijIIWXCY_BzJKXO6Sv-1" source="iNijIIWXCY_BzJKXO6Sv-15" target="iNijIIWXCY_BzJKXO6Sv-12">
          <mxGeometry relative="1" as="geometry" />
        </mxCell>
        <mxCell id="iNijIIWXCY_BzJKXO6Sv-14" style="edgeStyle=orthogonalEdgeStyle;rounded=0;orthogonalLoop=1;jettySize=auto;html=1;exitX=0.5;exitY=1;exitDx=0;exitDy=0;" edge="1" parent="iNijIIWXCY_BzJKXO6Sv-1" source="iNijIIWXCY_BzJKXO6Sv-15" target="iNijIIWXCY_BzJKXO6Sv-16">
          <mxGeometry relative="1" as="geometry" />
        </mxCell>
        <mxCell id="iNijIIWXCY_BzJKXO6Sv-15" value="2" style="rounded=1;whiteSpace=wrap;html=1;" vertex="1" parent="iNijIIWXCY_BzJKXO6Sv-1">
          <mxGeometry x="596" y="400" width="42" height="30" as="geometry" />
        </mxCell>
        <mxCell id="iNijIIWXCY_BzJKXO6Sv-16" value="m" style="rounded=1;whiteSpace=wrap;html=1;" vertex="1" parent="iNijIIWXCY_BzJKXO6Sv-1">
          <mxGeometry x="645" y="470" width="42" height="30" as="geometry" />
        </mxCell>
        <mxCell id="iNijIIWXCY_BzJKXO6Sv-17" value="n" style="rounded=1;whiteSpace=wrap;html=1;" vertex="1" parent="iNijIIWXCY_BzJKXO6Sv-1">
          <mxGeometry x="758" y="470" width="42" height="30" as="geometry" />
        </mxCell>
        <mxCell id="iNijIIWXCY_BzJKXO6Sv-18" style="edgeStyle=orthogonalEdgeStyle;rounded=0;orthogonalLoop=1;jettySize=auto;html=1;exitX=0.5;exitY=1;exitDx=0;exitDy=0;" edge="1" parent="iNijIIWXCY_BzJKXO6Sv-1" source="iNijIIWXCY_BzJKXO6Sv-20" target="iNijIIWXCY_BzJKXO6Sv-17">
          <mxGeometry relative="1" as="geometry" />
        </mxCell>
        <mxCell id="iNijIIWXCY_BzJKXO6Sv-19" style="edgeStyle=orthogonalEdgeStyle;rounded=0;orthogonalLoop=1;jettySize=auto;html=1;exitX=0.5;exitY=1;exitDx=0;exitDy=0;" edge="1" parent="iNijIIWXCY_BzJKXO6Sv-1" source="iNijIIWXCY_BzJKXO6Sv-20" target="iNijIIWXCY_BzJKXO6Sv-21">
          <mxGeometry relative="1" as="geometry" />
        </mxCell>
        <mxCell id="iNijIIWXCY_BzJKXO6Sv-20" value="2" style="rounded=1;whiteSpace=wrap;html=1;" vertex="1" parent="iNijIIWXCY_BzJKXO6Sv-1">
          <mxGeometry x="807" y="400" width="42" height="30" as="geometry" />
        </mxCell>
        <mxCell id="iNijIIWXCY_BzJKXO6Sv-21" value="r" style="rounded=1;whiteSpace=wrap;html=1;" vertex="1" parent="iNijIIWXCY_BzJKXO6Sv-1">
          <mxGeometry x="856" y="470" width="42" height="30" as="geometry" />
        </mxCell>
        <mxCell id="iNijIIWXCY_BzJKXO6Sv-22" value="s" style="rounded=1;whiteSpace=wrap;html=1;" vertex="1" parent="iNijIIWXCY_BzJKXO6Sv-1">
          <mxGeometry x="933" y="470" width="42" height="30" as="geometry" />
        </mxCell>
        <mxCell id="iNijIIWXCY_BzJKXO6Sv-23" style="edgeStyle=orthogonalEdgeStyle;rounded=0;orthogonalLoop=1;jettySize=auto;html=1;exitX=0.5;exitY=1;exitDx=0;exitDy=0;" edge="1" parent="iNijIIWXCY_BzJKXO6Sv-1" source="iNijIIWXCY_BzJKXO6Sv-25" target="iNijIIWXCY_BzJKXO6Sv-22">
          <mxGeometry relative="1" as="geometry" />
        </mxCell>
        <mxCell id="iNijIIWXCY_BzJKXO6Sv-24" style="edgeStyle=orthogonalEdgeStyle;rounded=0;orthogonalLoop=1;jettySize=auto;html=1;exitX=0.5;exitY=1;exitDx=0;exitDy=0;" edge="1" parent="iNijIIWXCY_BzJKXO6Sv-1" source="iNijIIWXCY_BzJKXO6Sv-25" target="iNijIIWXCY_BzJKXO6Sv-26">
          <mxGeometry relative="1" as="geometry" />
        </mxCell>
        <mxCell id="iNijIIWXCY_BzJKXO6Sv-25" value="3" style="rounded=1;whiteSpace=wrap;html=1;" vertex="1" parent="iNijIIWXCY_BzJKXO6Sv-1">
          <mxGeometry x="982" y="400" width="42" height="30" as="geometry" />
        </mxCell>
        <mxCell id="iNijIIWXCY_BzJKXO6Sv-26" value="t" style="rounded=1;whiteSpace=wrap;html=1;" vertex="1" parent="iNijIIWXCY_BzJKXO6Sv-1">
          <mxGeometry x="1031" y="470" width="42" height="30" as="geometry" />
        </mxCell>
        <mxCell id="iNijIIWXCY_BzJKXO6Sv-27" value="_" style="rounded=1;whiteSpace=wrap;html=1;" vertex="1" parent="iNijIIWXCY_BzJKXO6Sv-1">
          <mxGeometry x="276" y="400" width="42" height="30" as="geometry" />
        </mxCell>
        <mxCell id="iNijIIWXCY_BzJKXO6Sv-28" style="edgeStyle=orthogonalEdgeStyle;rounded=0;orthogonalLoop=1;jettySize=auto;html=1;exitX=0.5;exitY=1;exitDx=0;exitDy=0;" edge="1" parent="iNijIIWXCY_BzJKXO6Sv-1" source="iNijIIWXCY_BzJKXO6Sv-30">
          <mxGeometry relative="1" as="geometry">
            <mxPoint x="198" y="399" as="targetPoint" />
          </mxGeometry>
        </mxCell>
        <mxCell id="iNijIIWXCY_BzJKXO6Sv-29" style="edgeStyle=orthogonalEdgeStyle;rounded=0;orthogonalLoop=1;jettySize=auto;html=1;exitX=0.5;exitY=1;exitDx=0;exitDy=0;" edge="1" parent="iNijIIWXCY_BzJKXO6Sv-1" source="iNijIIWXCY_BzJKXO6Sv-30">
          <mxGeometry relative="1" as="geometry">
            <mxPoint x="296" y="399" as="targetPoint" />
          </mxGeometry>
        </mxCell>
        <mxCell id="iNijIIWXCY_BzJKXO6Sv-30" value="4" style="rounded=1;whiteSpace=wrap;html=1;" vertex="1" parent="iNijIIWXCY_BzJKXO6Sv-1">
          <mxGeometry x="226" y="329" width="42" height="30" as="geometry" />
        </mxCell>
        <mxCell id="iNijIIWXCY_BzJKXO6Sv-31" value="i" style="rounded=1;whiteSpace=wrap;html=1;" vertex="1" parent="iNijIIWXCY_BzJKXO6Sv-1">
          <mxGeometry x="480" y="400" width="42" height="30" as="geometry" />
        </mxCell>
        <mxCell id="iNijIIWXCY_BzJKXO6Sv-32" style="edgeStyle=orthogonalEdgeStyle;rounded=0;orthogonalLoop=1;jettySize=auto;html=1;exitX=0.5;exitY=1;exitDx=0;exitDy=0;" edge="1" parent="iNijIIWXCY_BzJKXO6Sv-1" source="iNijIIWXCY_BzJKXO6Sv-34">
          <mxGeometry relative="1" as="geometry">
            <mxPoint x="402" y="399" as="targetPoint" />
          </mxGeometry>
        </mxCell>
        <mxCell id="iNijIIWXCY_BzJKXO6Sv-33" style="edgeStyle=orthogonalEdgeStyle;rounded=0;orthogonalLoop=1;jettySize=auto;html=1;exitX=0.5;exitY=1;exitDx=0;exitDy=0;" edge="1" parent="iNijIIWXCY_BzJKXO6Sv-1" source="iNijIIWXCY_BzJKXO6Sv-34">
          <mxGeometry relative="1" as="geometry">
            <mxPoint x="499.9999999999998" y="399" as="targetPoint" />
          </mxGeometry>
        </mxCell>
        <mxCell id="iNijIIWXCY_BzJKXO6Sv-34" value="5" style="rounded=1;whiteSpace=wrap;html=1;" vertex="1" parent="iNijIIWXCY_BzJKXO6Sv-1">
          <mxGeometry x="430" y="329" width="42" height="30" as="geometry" />
        </mxCell>
        <mxCell id="iNijIIWXCY_BzJKXO6Sv-35" value="o" style="rounded=1;whiteSpace=wrap;html=1;" vertex="1" parent="iNijIIWXCY_BzJKXO6Sv-1">
          <mxGeometry x="694" y="400" width="42" height="30" as="geometry" />
        </mxCell>
        <mxCell id="iNijIIWXCY_BzJKXO6Sv-36" style="edgeStyle=orthogonalEdgeStyle;rounded=0;orthogonalLoop=1;jettySize=auto;html=1;exitX=0.5;exitY=1;exitDx=0;exitDy=0;" edge="1" parent="iNijIIWXCY_BzJKXO6Sv-1" source="iNijIIWXCY_BzJKXO6Sv-38">
          <mxGeometry relative="1" as="geometry">
            <mxPoint x="616" y="399" as="targetPoint" />
          </mxGeometry>
        </mxCell>
        <mxCell id="iNijIIWXCY_BzJKXO6Sv-37" style="edgeStyle=orthogonalEdgeStyle;rounded=0;orthogonalLoop=1;jettySize=auto;html=1;exitX=0.5;exitY=1;exitDx=0;exitDy=0;" edge="1" parent="iNijIIWXCY_BzJKXO6Sv-1" source="iNijIIWXCY_BzJKXO6Sv-38">
          <mxGeometry relative="1" as="geometry">
            <mxPoint x="713.9999999999998" y="399" as="targetPoint" />
          </mxGeometry>
        </mxCell>
        <mxCell id="iNijIIWXCY_BzJKXO6Sv-38" value="5" style="rounded=1;whiteSpace=wrap;html=1;" vertex="1" parent="iNijIIWXCY_BzJKXO6Sv-1">
          <mxGeometry x="644" y="329" width="42" height="30" as="geometry" />
        </mxCell>
        <mxCell id="iNijIIWXCY_BzJKXO6Sv-39" style="edgeStyle=orthogonalEdgeStyle;rounded=0;orthogonalLoop=1;jettySize=auto;html=1;exitX=0.5;exitY=1;exitDx=0;exitDy=0;entryX=0.5;entryY=0;entryDx=0;entryDy=0;" edge="1" parent="iNijIIWXCY_BzJKXO6Sv-1" source="iNijIIWXCY_BzJKXO6Sv-41" target="iNijIIWXCY_BzJKXO6Sv-20">
          <mxGeometry relative="1" as="geometry">
            <mxPoint x="861.0599999999997" y="396" as="targetPoint" />
          </mxGeometry>
        </mxCell>
        <mxCell id="iNijIIWXCY_BzJKXO6Sv-40" style="edgeStyle=orthogonalEdgeStyle;rounded=0;orthogonalLoop=1;jettySize=auto;html=1;exitX=0.5;exitY=1;exitDx=0;exitDy=0;entryX=0.5;entryY=0;entryDx=0;entryDy=0;" edge="1" parent="iNijIIWXCY_BzJKXO6Sv-1" source="iNijIIWXCY_BzJKXO6Sv-41" target="iNijIIWXCY_BzJKXO6Sv-25">
          <mxGeometry relative="1" as="geometry">
            <mxPoint x="959.0599999999997" y="396" as="targetPoint" />
          </mxGeometry>
        </mxCell>
        <mxCell id="iNijIIWXCY_BzJKXO6Sv-41" value="5" style="rounded=1;whiteSpace=wrap;html=1;" vertex="1" parent="iNijIIWXCY_BzJKXO6Sv-1">
          <mxGeometry x="889.06" y="326" width="42" height="30" as="geometry" />
        </mxCell>
        <mxCell id="iNijIIWXCY_BzJKXO6Sv-42" style="edgeStyle=orthogonalEdgeStyle;rounded=0;orthogonalLoop=1;jettySize=auto;html=1;exitX=0.5;exitY=1;exitDx=0;exitDy=0;entryX=0.5;entryY=0;entryDx=0;entryDy=0;" edge="1" parent="iNijIIWXCY_BzJKXO6Sv-1" source="iNijIIWXCY_BzJKXO6Sv-44" target="iNijIIWXCY_BzJKXO6Sv-30">
          <mxGeometry relative="1" as="geometry">
            <mxPoint x="295.0599999999998" y="326" as="targetPoint" />
          </mxGeometry>
        </mxCell>
        <mxCell id="iNijIIWXCY_BzJKXO6Sv-43" style="edgeStyle=orthogonalEdgeStyle;rounded=0;orthogonalLoop=1;jettySize=auto;html=1;exitX=0.5;exitY=1;exitDx=0;exitDy=0;entryX=0.5;entryY=0;entryDx=0;entryDy=0;" edge="1" parent="iNijIIWXCY_BzJKXO6Sv-1" source="iNijIIWXCY_BzJKXO6Sv-44" target="iNijIIWXCY_BzJKXO6Sv-34">
          <mxGeometry relative="1" as="geometry">
            <mxPoint x="393.0599999999998" y="326" as="targetPoint" />
          </mxGeometry>
        </mxCell>
        <mxCell id="iNijIIWXCY_BzJKXO6Sv-44" value="9" style="rounded=1;whiteSpace=wrap;html=1;" vertex="1" parent="iNijIIWXCY_BzJKXO6Sv-1">
          <mxGeometry x="323.06" y="255" width="42" height="30" as="geometry" />
        </mxCell>
        <mxCell id="iNijIIWXCY_BzJKXO6Sv-45" style="edgeStyle=orthogonalEdgeStyle;rounded=0;orthogonalLoop=1;jettySize=auto;html=1;exitX=0.5;exitY=1;exitDx=0;exitDy=0;entryX=0.5;entryY=0;entryDx=0;entryDy=0;" edge="1" parent="iNijIIWXCY_BzJKXO6Sv-1" source="iNijIIWXCY_BzJKXO6Sv-47" target="iNijIIWXCY_BzJKXO6Sv-38">
          <mxGeometry relative="1" as="geometry">
            <mxPoint x="729.9999999999998" y="329" as="targetPoint" />
          </mxGeometry>
        </mxCell>
        <mxCell id="iNijIIWXCY_BzJKXO6Sv-46" style="edgeStyle=orthogonalEdgeStyle;rounded=0;orthogonalLoop=1;jettySize=auto;html=1;exitX=0.5;exitY=1;exitDx=0;exitDy=0;entryX=0.5;entryY=0;entryDx=0;entryDy=0;" edge="1" parent="iNijIIWXCY_BzJKXO6Sv-1" source="iNijIIWXCY_BzJKXO6Sv-47" target="iNijIIWXCY_BzJKXO6Sv-41">
          <mxGeometry relative="1" as="geometry">
            <mxPoint x="827.9999999999998" y="329" as="targetPoint" />
          </mxGeometry>
        </mxCell>
        <mxCell id="iNijIIWXCY_BzJKXO6Sv-47" value="10" style="rounded=1;whiteSpace=wrap;html=1;" vertex="1" parent="iNijIIWXCY_BzJKXO6Sv-1">
          <mxGeometry x="758" y="257" width="42" height="30" as="geometry" />
        </mxCell>
        <mxCell id="iNijIIWXCY_BzJKXO6Sv-48" style="edgeStyle=orthogonalEdgeStyle;rounded=0;orthogonalLoop=1;jettySize=auto;html=1;exitX=0.5;exitY=1;exitDx=0;exitDy=0;entryX=0.5;entryY=0;entryDx=0;entryDy=0;" edge="1" parent="iNijIIWXCY_BzJKXO6Sv-1" source="iNijIIWXCY_BzJKXO6Sv-50" target="iNijIIWXCY_BzJKXO6Sv-44">
          <mxGeometry relative="1" as="geometry">
            <mxPoint x="486.0599999999998" y="257" as="targetPoint" />
          </mxGeometry>
        </mxCell>
        <mxCell id="iNijIIWXCY_BzJKXO6Sv-49" style="edgeStyle=orthogonalEdgeStyle;rounded=0;orthogonalLoop=1;jettySize=auto;html=1;exitX=0.5;exitY=1;exitDx=0;exitDy=0;entryX=0.5;entryY=0;entryDx=0;entryDy=0;" edge="1" parent="iNijIIWXCY_BzJKXO6Sv-1" source="iNijIIWXCY_BzJKXO6Sv-50" target="iNijIIWXCY_BzJKXO6Sv-47">
          <mxGeometry relative="1" as="geometry">
            <mxPoint x="584.0599999999997" y="257" as="targetPoint" />
          </mxGeometry>
        </mxCell>
        <mxCell id="iNijIIWXCY_BzJKXO6Sv-50" value="19" style="rounded=1;whiteSpace=wrap;html=1;" vertex="1" parent="iNijIIWXCY_BzJKXO6Sv-1">
          <mxGeometry x="514.06" y="186" width="42" height="30" as="geometry" />
        </mxCell>
        <mxCell id="iNijIIWXCY_BzJKXO6Sv-51" value="1" style="text;html=1;strokeColor=none;fillColor=none;align=center;verticalAlign=middle;whiteSpace=wrap;rounded=0;" vertex="1" parent="iNijIIWXCY_BzJKXO6Sv-1">
          <mxGeometry x="653" y="213" width="18" height="18" as="geometry" />
        </mxCell>
        <mxCell id="iNijIIWXCY_BzJKXO6Sv-52" value="1" style="text;html=1;strokeColor=none;fillColor=none;align=center;verticalAlign=middle;whiteSpace=wrap;rounded=0;" vertex="1" parent="iNijIIWXCY_BzJKXO6Sv-1">
          <mxGeometry x="831" y="287" width="18" height="18" as="geometry" />
        </mxCell>
        <mxCell id="iNijIIWXCY_BzJKXO6Sv-53" value="1" style="text;html=1;strokeColor=none;fillColor=none;align=center;verticalAlign=middle;whiteSpace=wrap;rounded=0;" vertex="1" parent="iNijIIWXCY_BzJKXO6Sv-1">
          <mxGeometry x="947" y="356" width="18" height="18" as="geometry" />
        </mxCell>
        <mxCell id="iNijIIWXCY_BzJKXO6Sv-54" value="1" style="text;html=1;strokeColor=none;fillColor=none;align=center;verticalAlign=middle;whiteSpace=wrap;rounded=0;" vertex="1" parent="iNijIIWXCY_BzJKXO6Sv-1">
          <mxGeometry x="1031" y="430" width="18" height="18" as="geometry" />
        </mxCell>
        <mxCell id="iNijIIWXCY_BzJKXO6Sv-55" value="1" style="text;html=1;strokeColor=none;fillColor=none;align=center;verticalAlign=middle;whiteSpace=wrap;rounded=0;" vertex="1" parent="iNijIIWXCY_BzJKXO6Sv-1">
          <mxGeometry x="849" y="430" width="18" height="18" as="geometry" />
        </mxCell>
        <mxCell id="iNijIIWXCY_BzJKXO6Sv-56" value="1" style="text;html=1;strokeColor=none;fillColor=none;align=center;verticalAlign=middle;whiteSpace=wrap;rounded=0;" vertex="1" parent="iNijIIWXCY_BzJKXO6Sv-1">
          <mxGeometry x="683" y="359" width="18" height="18" as="geometry" />
        </mxCell>
        <mxCell id="iNijIIWXCY_BzJKXO6Sv-57" value="1" style="text;html=1;strokeColor=none;fillColor=none;align=center;verticalAlign=middle;whiteSpace=wrap;rounded=0;" vertex="1" parent="iNijIIWXCY_BzJKXO6Sv-1">
          <mxGeometry x="633" y="430" width="18" height="18" as="geometry" />
        </mxCell>
        <mxCell id="iNijIIWXCY_BzJKXO6Sv-58" value="1" style="text;html=1;strokeColor=none;fillColor=none;align=center;verticalAlign=middle;whiteSpace=wrap;rounded=0;" vertex="1" parent="iNijIIWXCY_BzJKXO6Sv-1">
          <mxGeometry x="468" y="359" width="18" height="18" as="geometry" />
        </mxCell>
        <mxCell id="iNijIIWXCY_BzJKXO6Sv-59" value="1" style="text;html=1;strokeColor=none;fillColor=none;align=center;verticalAlign=middle;whiteSpace=wrap;rounded=0;" vertex="1" parent="iNijIIWXCY_BzJKXO6Sv-1">
          <mxGeometry x="421" y="430" width="18" height="18" as="geometry" />
        </mxCell>
        <mxCell id="iNijIIWXCY_BzJKXO6Sv-60" value="1" style="text;html=1;strokeColor=none;fillColor=none;align=center;verticalAlign=middle;whiteSpace=wrap;rounded=0;" vertex="1" parent="iNijIIWXCY_BzJKXO6Sv-1">
          <mxGeometry x="263" y="359" width="18" height="18" as="geometry" />
        </mxCell>
        <mxCell id="iNijIIWXCY_BzJKXO6Sv-61" value="1" style="text;html=1;strokeColor=none;fillColor=none;align=center;verticalAlign=middle;whiteSpace=wrap;rounded=0;" vertex="1" parent="iNijIIWXCY_BzJKXO6Sv-1">
          <mxGeometry x="214" y="430" width="18" height="18" as="geometry" />
        </mxCell>
        <mxCell id="iNijIIWXCY_BzJKXO6Sv-62" value="0" style="text;html=1;strokeColor=none;fillColor=none;align=center;verticalAlign=middle;whiteSpace=wrap;rounded=0;" vertex="1" parent="iNijIIWXCY_BzJKXO6Sv-1">
          <mxGeometry x="424" y="213" width="18" height="18" as="geometry" />
        </mxCell>
        <mxCell id="iNijIIWXCY_BzJKXO6Sv-64" value="0" style="text;html=1;strokeColor=none;fillColor=none;align=center;verticalAlign=middle;whiteSpace=wrap;rounded=0;" vertex="1" parent="iNijIIWXCY_BzJKXO6Sv-1">
          <mxGeometry x="286" y="287" width="18" height="18" as="geometry" />
        </mxCell>
        <mxCell id="iNijIIWXCY_BzJKXO6Sv-65" value="0" style="text;html=1;strokeColor=none;fillColor=none;align=center;verticalAlign=middle;whiteSpace=wrap;rounded=0;" vertex="1" parent="iNijIIWXCY_BzJKXO6Sv-1">
          <mxGeometry x="208" y="359" width="18" height="18" as="geometry" />
        </mxCell>
        <mxCell id="iNijIIWXCY_BzJKXO6Sv-66" value="0" style="text;html=1;strokeColor=none;fillColor=none;align=center;verticalAlign=middle;whiteSpace=wrap;rounded=0;" vertex="1" parent="iNijIIWXCY_BzJKXO6Sv-1">
          <mxGeometry x="159" y="430" width="18" height="18" as="geometry" />
        </mxCell>
        <mxCell id="iNijIIWXCY_BzJKXO6Sv-67" value="0" style="text;html=1;strokeColor=none;fillColor=none;align=center;verticalAlign=middle;whiteSpace=wrap;rounded=0;" vertex="1" parent="iNijIIWXCY_BzJKXO6Sv-1">
          <mxGeometry x="410" y="359" width="18" height="18" as="geometry" />
        </mxCell>
        <mxCell id="iNijIIWXCY_BzJKXO6Sv-68" value="0" style="text;html=1;strokeColor=none;fillColor=none;align=center;verticalAlign=middle;whiteSpace=wrap;rounded=0;" vertex="1" parent="iNijIIWXCY_BzJKXO6Sv-1">
          <mxGeometry x="364" y="430" width="18" height="18" as="geometry" />
        </mxCell>
        <mxCell id="iNijIIWXCY_BzJKXO6Sv-69" value="0" style="text;html=1;strokeColor=none;fillColor=none;align=center;verticalAlign=middle;whiteSpace=wrap;rounded=0;" vertex="1" parent="iNijIIWXCY_BzJKXO6Sv-1">
          <mxGeometry x="626" y="359" width="18" height="18" as="geometry" />
        </mxCell>
        <mxCell id="iNijIIWXCY_BzJKXO6Sv-70" value="0" style="text;html=1;strokeColor=none;fillColor=none;align=center;verticalAlign=middle;whiteSpace=wrap;rounded=0;" vertex="1" parent="iNijIIWXCY_BzJKXO6Sv-1">
          <mxGeometry x="576" y="430" width="18" height="18" as="geometry" />
        </mxCell>
        <mxCell id="iNijIIWXCY_BzJKXO6Sv-71" value="0" style="text;html=1;strokeColor=none;fillColor=none;align=center;verticalAlign=middle;whiteSpace=wrap;rounded=0;" vertex="1" parent="iNijIIWXCY_BzJKXO6Sv-1">
          <mxGeometry x="786" y="430" width="18" height="18" as="geometry" />
        </mxCell>
        <mxCell id="iNijIIWXCY_BzJKXO6Sv-72" value="0" style="text;html=1;strokeColor=none;fillColor=none;align=center;verticalAlign=middle;whiteSpace=wrap;rounded=0;" vertex="1" parent="iNijIIWXCY_BzJKXO6Sv-1">
          <mxGeometry x="849" y="356" width="18" height="18" as="geometry" />
        </mxCell>
        <mxCell id="iNijIIWXCY_BzJKXO6Sv-73" value="0" style="text;html=1;strokeColor=none;fillColor=none;align=center;verticalAlign=middle;whiteSpace=wrap;rounded=0;" vertex="1" parent="iNijIIWXCY_BzJKXO6Sv-1">
          <mxGeometry x="962" y="430" width="18" height="18" as="geometry" />
        </mxCell>
        <mxCell id="iNijIIWXCY_BzJKXO6Sv-74" value="0" style="text;html=1;strokeColor=none;fillColor=none;align=center;verticalAlign=middle;whiteSpace=wrap;rounded=0;" vertex="1" parent="iNijIIWXCY_BzJKXO6Sv-1">
          <mxGeometry x="703" y="287" width="18" height="18" as="geometry" />
        </mxCell>
        <mxCell id="iNijIIWXCY_BzJKXO6Sv-75" value="1" style="text;html=1;strokeColor=none;fillColor=none;align=center;verticalAlign=middle;whiteSpace=wrap;rounded=0;" vertex="1" parent="iNijIIWXCY_BzJKXO6Sv-1">
          <mxGeometry x="392" y="287" width="18" height="18" as="geometry" />
        </mxCell>
      </root>
    </mxGraphModel>
  </diagram>
</mxfile>
